<svg width="3398" height="1363" viewBox="0 0 3398 1363" fill="none" xmlns="http://www.w3.org/2000/svg">
<rect width="3398" height="1363" fill="black"/>
<path d="M271.32 787.964L257.216 779.708L285.08 731.548V716.068L243.112 691.816L251.196 677.884L285.08 697.492V691.3C279.92 689.695 275.677 686.828 272.352 682.7C269.141 678.457 267.536 673.584 267.536 668.08C267.536 663.264 268.683 658.964 270.976 655.18C273.269 651.396 276.365 648.415 280.264 646.236C284.277 643.943 288.749 642.796 293.68 642.796C298.611 642.796 303.025 643.943 306.924 646.236C310.937 648.415 314.091 651.396 316.384 655.18C318.677 658.964 319.824 663.264 319.824 668.08C319.824 673.584 318.161 678.457 314.836 682.7C311.625 686.828 307.44 689.695 302.28 691.3V697.492L336.164 677.884L344.248 691.816L302.28 716.068V731.548L330.144 779.708L316.04 787.964L293.68 749.436L271.32 787.964ZM293.68 677.712C296.432 677.712 298.725 676.795 300.56 674.96C302.395 673.125 303.312 670.832 303.312 668.08C303.312 665.328 302.395 663.035 300.56 661.2C298.725 659.365 296.432 658.448 293.68 658.448C290.928 658.448 288.635 659.365 286.8 661.2C284.965 663.035 284.048 665.328 284.048 668.08C284.048 670.832 284.965 673.125 286.8 674.96C288.635 676.795 290.928 677.712 293.68 677.712Z" fill="white"/>
<path d="M2454.32 428.964L2440.22 420.708L2468.08 372.548V357.068L2426.11 332.816L2434.2 318.884L2468.08 338.492V332.3C2462.92 330.695 2458.68 327.828 2455.35 323.7C2452.14 319.457 2450.54 314.584 2450.54 309.08C2450.54 304.264 2451.68 299.964 2453.98 296.18C2456.27 292.396 2459.37 289.415 2463.26 287.236C2467.28 284.943 2471.75 283.796 2476.68 283.796C2481.61 283.796 2486.03 284.943 2489.92 287.236C2493.94 289.415 2497.09 292.396 2499.38 296.18C2501.68 299.964 2502.82 304.264 2502.82 309.08C2502.82 314.584 2501.16 319.457 2497.84 323.7C2494.63 327.828 2490.44 330.695 2485.28 332.3V338.492L2519.16 318.884L2527.25 332.816L2485.28 357.068V372.548L2513.14 420.708L2499.04 428.964L2476.68 390.436L2454.32 428.964ZM2476.68 318.712C2479.43 318.712 2481.73 317.795 2483.56 315.96C2485.39 314.125 2486.31 311.832 2486.31 309.08C2486.31 306.328 2485.39 304.035 2483.56 302.2C2481.73 300.365 2479.43 299.448 2476.68 299.448C2473.93 299.448 2471.63 300.365 2469.8 302.2C2467.97 304.035 2467.05 306.328 2467.05 309.08C2467.05 311.832 2467.97 314.125 2469.8 315.96C2471.63 317.795 2473.93 318.712 2476.68 318.712Z" fill="white"/>
<path d="M2454.32 777.964L2440.22 769.708L2468.08 721.548V706.068L2426.11 681.816L2434.2 667.884L2468.08 687.492V681.3C2462.92 679.695 2458.68 676.828 2455.35 672.7C2452.14 668.457 2450.54 663.584 2450.54 658.08C2450.54 653.264 2451.68 648.964 2453.98 645.18C2456.27 641.396 2459.37 638.415 2463.26 636.236C2467.28 633.943 2471.75 632.796 2476.68 632.796C2481.61 632.796 2486.03 633.943 2489.92 636.236C2493.94 638.415 2497.09 641.396 2499.38 645.18C2501.68 648.964 2502.82 653.264 2502.82 658.08C2502.82 663.584 2501.16 668.457 2497.84 672.7C2494.63 676.828 2490.44 679.695 2485.28 681.3V687.492L2519.16 667.884L2527.25 681.816L2485.28 706.068V721.548L2513.14 769.708L2499.04 777.964L2476.68 739.436L2454.32 777.964ZM2476.68 667.712C2479.43 667.712 2481.73 666.795 2483.56 664.96C2485.39 663.125 2486.31 660.832 2486.31 658.08C2486.31 655.328 2485.39 653.035 2483.56 651.2C2481.73 649.365 2479.43 648.448 2476.68 648.448C2473.93 648.448 2471.63 649.365 2469.8 651.2C2467.97 653.035 2467.05 655.328 2467.05 658.08C2467.05 660.832 2467.97 663.125 2469.8 664.96C2471.63 666.795 2473.93 667.712 2476.68 667.712Z" fill="white"/>
<path d="M2454.32 1126.96L2440.22 1118.71L2468.08 1070.55V1055.07L2426.11 1030.82L2434.2 1016.88L2468.08 1036.49V1030.3C2462.92 1028.69 2458.68 1025.83 2455.35 1021.7C2452.14 1017.46 2450.54 1012.58 2450.54 1007.08C2450.54 1002.26 2451.68 997.964 2453.98 994.18C2456.27 990.396 2459.37 987.415 2463.26 985.236C2467.28 982.943 2471.75 981.796 2476.68 981.796C2481.61 981.796 2486.03 982.943 2489.92 985.236C2493.94 987.415 2497.09 990.396 2499.38 994.18C2501.68 997.964 2502.82 1002.26 2502.82 1007.08C2502.82 1012.58 2501.16 1017.46 2497.84 1021.7C2494.63 1025.83 2490.44 1028.69 2485.28 1030.3V1036.49L2519.16 1016.88L2527.25 1030.82L2485.28 1055.07V1070.55L2513.14 1118.71L2499.04 1126.96L2476.68 1088.44L2454.32 1126.96ZM2476.68 1016.71C2479.43 1016.71 2481.73 1015.79 2483.56 1013.96C2485.39 1012.13 2486.31 1009.83 2486.31 1007.08C2486.31 1004.33 2485.39 1002.03 2483.56 1000.2C2481.73 998.365 2479.43 997.448 2476.68 997.448C2473.93 997.448 2471.63 998.365 2469.8 1000.2C2467.97 1002.03 2467.05 1004.33 2467.05 1007.08C2467.05 1009.83 2467.97 1012.13 2469.8 1013.96C2471.63 1015.79 2473.93 1016.71 2476.68 1016.71Z" fill="white"/>
<path d="M568.08 682.28V708.56H594.24V716.72H568.08V743H559.92V716.72H533.76V708.56H559.92V682.28H568.08Z" fill="white"/>
<path d="M1269.08 686.28V712.56H1295.24V720.72H1269.08V747H1260.92V720.72H1234.76V712.56H1260.92V686.28H1269.08Z" fill="white"/>
<path d="M2277.08 682.28V708.56H2303.24V716.72H2277.08V743H2268.92V716.72H2242.76V708.56H2268.92V682.28H2277.08Z" fill="white"/>
<path d="M2707.08 515.28V541.56H2733.24V549.72H2707.08V576H2698.92V549.72H2672.76V541.56H2698.92V515.28H2707.08Z" fill="white"/>
<path d="M2707.08 867.28V893.56H2733.24V901.72H2707.08V928H2698.92V901.72H2672.76V893.56H2698.92V867.28H2707.08Z" fill="white"/>
<path d="M1065.68 855.964L1079.78 847.708L1051.92 799.548V784.068L1093.89 759.816L1085.8 745.884L1051.92 765.492V759.3C1057.08 757.695 1061.32 754.828 1064.65 750.7C1067.86 746.457 1069.46 741.584 1069.46 736.08C1069.46 731.264 1068.32 726.964 1066.02 723.18C1063.73 719.396 1060.63 716.415 1056.74 714.236C1052.72 711.943 1048.25 710.796 1043.32 710.796C1038.39 710.796 1033.97 711.943 1030.08 714.236C1026.06 716.415 1022.91 719.396 1020.62 723.18C1018.32 726.964 1017.18 731.264 1017.18 736.08C1017.18 741.584 1018.84 746.457 1022.16 750.7C1025.37 754.828 1029.56 757.695 1034.72 759.3V765.492L1000.84 745.884L992.752 759.816L1034.72 784.068V799.548L1006.86 847.708L1020.96 855.964L1043.32 817.436L1065.68 855.964ZM1043.32 745.712C1040.57 745.712 1038.27 744.795 1036.44 742.96C1034.61 741.125 1033.69 738.832 1033.69 736.08C1033.69 733.328 1034.61 731.035 1036.44 729.2C1038.27 727.365 1040.57 726.448 1043.32 726.448C1046.07 726.448 1048.37 727.365 1050.2 729.2C1052.03 731.035 1052.95 733.328 1052.95 736.08C1052.95 738.832 1052.03 741.125 1050.2 742.96C1048.37 744.795 1046.07 745.712 1043.32 745.712Z" fill="white"/>
<path d="M938.68 855.964L952.784 847.708L924.92 799.548V784.068L966.888 759.816L958.804 745.884L924.92 765.492V759.3C930.08 757.695 934.323 754.828 937.648 750.7C940.859 746.457 942.464 741.584 942.464 736.08C942.464 731.264 941.317 726.964 939.024 723.18C936.731 719.396 933.635 716.415 929.736 714.236C925.723 711.943 921.251 710.796 916.32 710.796C911.389 710.796 906.975 711.943 903.076 714.236C899.063 716.415 895.909 719.396 893.616 723.18C891.323 726.964 890.176 731.264 890.176 736.08C890.176 741.584 891.839 746.457 895.164 750.7C898.375 754.828 902.56 757.695 907.72 759.3V765.492L873.836 745.884L865.752 759.816L907.72 784.068V799.548L879.856 847.708L893.96 855.964L916.32 817.436L938.68 855.964ZM916.32 745.712C913.568 745.712 911.275 744.795 909.44 742.96C907.605 741.125 906.688 738.832 906.688 736.08C906.688 733.328 907.605 731.035 909.44 729.2C911.275 727.365 913.568 726.448 916.32 726.448C919.072 726.448 921.365 727.365 923.2 729.2C925.035 731.035 925.952 733.328 925.952 736.08C925.952 738.832 925.035 741.125 923.2 742.96C921.365 744.795 919.072 745.712 916.32 745.712Z" fill="white"/>
<path d="M811.68 855.964L825.784 847.708L797.92 799.548V784.068L839.888 759.816L831.804 745.884L797.92 765.492V759.3C803.08 757.695 807.323 754.828 810.648 750.7C813.859 746.457 815.464 741.584 815.464 736.08C815.464 731.264 814.317 726.964 812.024 723.18C809.731 719.396 806.635 716.415 802.736 714.236C798.723 711.943 794.251 710.796 789.32 710.796C784.389 710.796 779.975 711.943 776.076 714.236C772.063 716.415 768.909 719.396 766.616 723.18C764.323 726.964 763.176 731.264 763.176 736.08C763.176 741.584 764.839 746.457 768.164 750.7C771.375 754.828 775.56 757.695 780.72 759.3V765.492L746.836 745.884L738.752 759.816L780.72 784.068V799.548L752.856 847.708L766.96 855.964L789.32 817.436L811.68 855.964ZM789.32 745.712C786.568 745.712 784.275 744.795 782.44 742.96C780.605 741.125 779.688 738.832 779.688 736.08C779.688 733.328 780.605 731.035 782.44 729.2C784.275 727.365 786.568 726.448 789.32 726.448C792.072 726.448 794.365 727.365 796.2 729.2C798.035 731.035 798.952 733.328 798.952 736.08C798.952 738.832 798.035 741.125 796.2 742.96C794.365 744.795 792.072 745.712 789.32 745.712Z" fill="white"/>
<path d="M1011.68 688.964L1025.78 680.708L997.92 632.548V617.068L1039.89 592.816L1031.8 578.884L997.92 598.492V592.3C1003.08 590.695 1007.32 587.828 1010.65 583.7C1013.86 579.457 1015.46 574.584 1015.46 569.08C1015.46 564.264 1014.32 559.964 1012.02 556.18C1009.73 552.396 1006.63 549.415 1002.74 547.236C998.723 544.943 994.251 543.796 989.32 543.796C984.389 543.796 979.975 544.943 976.076 547.236C972.063 549.415 968.909 552.396 966.616 556.18C964.323 559.964 963.176 564.264 963.176 569.08C963.176 574.584 964.839 579.457 968.164 583.7C971.375 587.828 975.56 590.695 980.72 592.3V598.492L946.836 578.884L938.752 592.816L980.72 617.068V632.548L952.856 680.708L966.96 688.964L989.32 650.436L1011.68 688.964ZM989.32 578.712C986.568 578.712 984.275 577.795 982.44 575.96C980.605 574.125 979.688 571.832 979.688 569.08C979.688 566.328 980.605 564.035 982.44 562.2C984.275 560.365 986.568 559.448 989.32 559.448C992.072 559.448 994.365 560.365 996.2 562.2C998.035 564.035 998.952 566.328 998.952 569.08C998.952 571.832 998.035 574.125 996.2 575.96C994.365 577.795 992.072 578.712 989.32 578.712Z" fill="white"/>
<path d="M865.68 688.964L879.784 680.708L851.92 632.548V617.068L893.888 592.816L885.804 578.884L851.92 598.492V592.3C857.08 590.695 861.323 587.828 864.648 583.7C867.859 579.457 869.464 574.584 869.464 569.08C869.464 564.264 868.317 559.964 866.024 556.18C863.731 552.396 860.635 549.415 856.736 547.236C852.723 544.943 848.251 543.796 843.32 543.796C838.389 543.796 833.975 544.943 830.076 547.236C826.063 549.415 822.909 552.396 820.616 556.18C818.323 559.964 817.176 564.264 817.176 569.08C817.176 574.584 818.839 579.457 822.164 583.7C825.375 587.828 829.56 590.695 834.72 592.3V598.492L800.836 578.884L792.752 592.816L834.72 617.068V632.548L806.856 680.708L820.96 688.964L843.32 650.436L865.68 688.964ZM843.32 578.712C840.568 578.712 838.275 577.795 836.44 575.96C834.605 574.125 833.688 571.832 833.688 569.08C833.688 566.328 834.605 564.035 836.44 562.2C838.275 560.365 840.568 559.448 843.32 559.448C846.072 559.448 848.365 560.365 850.2 562.2C852.035 564.035 852.952 566.328 852.952 569.08C852.952 571.832 852.035 574.125 850.2 575.96C848.365 577.795 846.072 578.712 843.32 578.712Z" fill="white"/>
<path d="M1567.68 972.964L1581.78 964.708L1553.92 916.548V901.068L1595.89 876.816L1587.8 862.884L1553.92 882.492V876.3C1559.08 874.695 1563.32 871.828 1566.65 867.7C1569.86 863.457 1571.46 858.584 1571.46 853.08C1571.46 848.264 1570.32 843.964 1568.02 840.18C1565.73 836.396 1562.63 833.415 1558.74 831.236C1554.72 828.943 1550.25 827.796 1545.32 827.796C1540.39 827.796 1535.97 828.943 1532.08 831.236C1528.06 833.415 1524.91 836.396 1522.62 840.18C1520.32 843.964 1519.18 848.264 1519.18 853.08C1519.18 858.584 1520.84 863.457 1524.16 867.7C1527.37 871.828 1531.56 874.695 1536.72 876.3V882.492L1502.84 862.884L1494.75 876.816L1536.72 901.068V916.548L1508.86 964.708L1522.96 972.964L1545.32 934.436L1567.68 972.964ZM1545.32 862.712C1542.57 862.712 1540.27 861.795 1538.44 859.96C1536.61 858.125 1535.69 855.832 1535.69 853.08C1535.69 850.328 1536.61 848.035 1538.44 846.2C1540.27 844.365 1542.57 843.448 1545.32 843.448C1548.07 843.448 1550.37 844.365 1552.2 846.2C1554.03 848.035 1554.95 850.328 1554.95 853.08C1554.95 855.832 1554.03 858.125 1552.2 859.96C1550.37 861.795 1548.07 862.712 1545.32 862.712Z" fill="white"/>
<path d="M1720.68 972.964L1734.78 964.708L1706.92 916.548V901.068L1748.89 876.816L1740.8 862.884L1706.92 882.492V876.3C1712.08 874.695 1716.32 871.828 1719.65 867.7C1722.86 863.457 1724.46 858.584 1724.46 853.08C1724.46 848.264 1723.32 843.964 1721.02 840.18C1718.73 836.396 1715.63 833.415 1711.74 831.236C1707.72 828.943 1703.25 827.796 1698.32 827.796C1693.39 827.796 1688.97 828.943 1685.08 831.236C1681.06 833.415 1677.91 836.396 1675.62 840.18C1673.32 843.964 1672.18 848.264 1672.18 853.08C1672.18 858.584 1673.84 863.457 1677.16 867.7C1680.37 871.828 1684.56 874.695 1689.72 876.3V882.492L1655.84 862.884L1647.75 876.816L1689.72 901.068V916.548L1661.86 964.708L1675.96 972.964L1698.32 934.436L1720.68 972.964ZM1698.32 862.712C1695.57 862.712 1693.27 861.795 1691.44 859.96C1689.61 858.125 1688.69 855.832 1688.69 853.08C1688.69 850.328 1689.61 848.035 1691.44 846.2C1693.27 844.365 1695.57 843.448 1698.32 843.448C1701.07 843.448 1703.37 844.365 1705.2 846.2C1707.03 848.035 1707.95 850.328 1707.95 853.08C1707.95 855.832 1707.03 858.125 1705.2 859.96C1703.37 861.795 1701.07 862.712 1698.32 862.712Z" fill="white"/>
<path d="M1873.68 972.964L1887.78 964.708L1859.92 916.548V901.068L1901.89 876.816L1893.8 862.884L1859.92 882.492V876.3C1865.08 874.695 1869.32 871.828 1872.65 867.7C1875.86 863.457 1877.46 858.584 1877.46 853.08C1877.46 848.264 1876.32 843.964 1874.02 840.18C1871.73 836.396 1868.63 833.415 1864.74 831.236C1860.72 828.943 1856.25 827.796 1851.32 827.796C1846.39 827.796 1841.97 828.943 1838.08 831.236C1834.06 833.415 1830.91 836.396 1828.62 840.18C1826.32 843.964 1825.18 848.264 1825.18 853.08C1825.18 858.584 1826.84 863.457 1830.16 867.7C1833.37 871.828 1837.56 874.695 1842.72 876.3V882.492L1808.84 862.884L1800.75 876.816L1842.72 901.068V916.548L1814.86 964.708L1828.96 972.964L1851.32 934.436L1873.68 972.964ZM1851.32 862.712C1848.57 862.712 1846.27 861.795 1844.44 859.96C1842.61 858.125 1841.69 855.832 1841.69 853.08C1841.69 850.328 1842.61 848.035 1844.44 846.2C1846.27 844.365 1848.57 843.448 1851.32 843.448C1854.07 843.448 1856.37 844.365 1858.2 846.2C1860.03 848.035 1860.95 850.328 1860.95 853.08C1860.95 855.832 1860.03 858.125 1858.2 859.96C1856.37 861.795 1854.07 862.712 1851.32 862.712Z" fill="white"/>
<path d="M2026.68 972.964L2040.78 964.708L2012.92 916.548V901.068L2054.89 876.816L2046.8 862.884L2012.92 882.492V876.3C2018.08 874.695 2022.32 871.828 2025.65 867.7C2028.86 863.457 2030.46 858.584 2030.46 853.08C2030.46 848.264 2029.32 843.964 2027.02 840.18C2024.73 836.396 2021.63 833.415 2017.74 831.236C2013.72 828.943 2009.25 827.796 2004.32 827.796C1999.39 827.796 1994.97 828.943 1991.08 831.236C1987.06 833.415 1983.91 836.396 1981.62 840.18C1979.32 843.964 1978.18 848.264 1978.18 853.08C1978.18 858.584 1979.84 863.457 1983.16 867.7C1986.37 871.828 1990.56 874.695 1995.72 876.3V882.492L1961.84 862.884L1953.75 876.816L1995.72 901.068V916.548L1967.86 964.708L1981.96 972.964L2004.32 934.436L2026.68 972.964ZM2004.32 862.712C2001.57 862.712 1999.27 861.795 1997.44 859.96C1995.61 858.125 1994.69 855.832 1994.69 853.08C1994.69 850.328 1995.61 848.035 1997.44 846.2C1999.27 844.365 2001.57 843.448 2004.32 843.448C2007.07 843.448 2009.37 844.365 2011.2 846.2C2013.03 848.035 2013.95 850.328 2013.95 853.08C2013.95 855.832 2013.03 858.125 2011.2 859.96C2009.37 861.795 2007.07 862.712 2004.32 862.712Z" fill="white"/>
<path d="M1567.68 602.964L1581.78 594.708L1553.92 546.548V531.068L1595.89 506.816L1587.8 492.884L1553.92 512.492V506.3C1559.08 504.695 1563.32 501.828 1566.65 497.7C1569.86 493.457 1571.46 488.584 1571.46 483.08C1571.46 478.264 1570.32 473.964 1568.02 470.18C1565.73 466.396 1562.63 463.415 1558.74 461.236C1554.72 458.943 1550.25 457.796 1545.32 457.796C1540.39 457.796 1535.97 458.943 1532.08 461.236C1528.06 463.415 1524.91 466.396 1522.62 470.18C1520.32 473.964 1519.18 478.264 1519.18 483.08C1519.18 488.584 1520.84 493.457 1524.16 497.7C1527.37 501.828 1531.56 504.695 1536.72 506.3V512.492L1502.84 492.884L1494.75 506.816L1536.72 531.068V546.548L1508.86 594.708L1522.96 602.964L1545.32 564.436L1567.68 602.964ZM1545.32 492.712C1542.57 492.712 1540.27 491.795 1538.44 489.96C1536.61 488.125 1535.69 485.832 1535.69 483.08C1535.69 480.328 1536.61 478.035 1538.44 476.2C1540.27 474.365 1542.57 473.448 1545.32 473.448C1548.07 473.448 1550.37 474.365 1552.2 476.2C1554.03 478.035 1554.95 480.328 1554.95 483.08C1554.95 485.832 1554.03 488.125 1552.2 489.96C1550.37 491.795 1548.07 492.712 1545.32 492.712Z" fill="white"/>
<path d="M1720.68 602.964L1734.78 594.708L1706.92 546.548V531.068L1748.89 506.816L1740.8 492.884L1706.92 512.492V506.3C1712.08 504.695 1716.32 501.828 1719.65 497.7C1722.86 493.457 1724.46 488.584 1724.46 483.08C1724.46 478.264 1723.32 473.964 1721.02 470.18C1718.73 466.396 1715.63 463.415 1711.74 461.236C1707.72 458.943 1703.25 457.796 1698.32 457.796C1693.39 457.796 1688.97 458.943 1685.08 461.236C1681.06 463.415 1677.91 466.396 1675.62 470.18C1673.32 473.964 1672.18 478.264 1672.18 483.08C1672.18 488.584 1673.84 493.457 1677.16 497.7C1680.37 501.828 1684.56 504.695 1689.72 506.3V512.492L1655.84 492.884L1647.75 506.816L1689.72 531.068V546.548L1661.86 594.708L1675.96 602.964L1698.32 564.436L1720.68 602.964ZM1698.32 492.712C1695.57 492.712 1693.27 491.795 1691.44 489.96C1689.61 488.125 1688.69 485.832 1688.69 483.08C1688.69 480.328 1689.61 478.035 1691.44 476.2C1693.27 474.365 1695.57 473.448 1698.32 473.448C1701.07 473.448 1703.37 474.365 1705.2 476.2C1707.03 478.035 1707.95 480.328 1707.95 483.08C1707.95 485.832 1707.03 488.125 1705.2 489.96C1703.37 491.795 1701.07 492.712 1698.32 492.712Z" fill="white"/>
<path d="M1873.68 602.964L1887.78 594.708L1859.92 546.548V531.068L1901.89 506.816L1893.8 492.884L1859.92 512.492V506.3C1865.08 504.695 1869.32 501.828 1872.65 497.7C1875.86 493.457 1877.46 488.584 1877.46 483.08C1877.46 478.264 1876.32 473.964 1874.02 470.18C1871.73 466.396 1868.63 463.415 1864.74 461.236C1860.72 458.943 1856.25 457.796 1851.32 457.796C1846.39 457.796 1841.97 458.943 1838.08 461.236C1834.06 463.415 1830.91 466.396 1828.62 470.18C1826.32 473.964 1825.18 478.264 1825.18 483.08C1825.18 488.584 1826.84 493.457 1830.16 497.7C1833.37 501.828 1837.56 504.695 1842.72 506.3V512.492L1808.84 492.884L1800.75 506.816L1842.72 531.068V546.548L1814.86 594.708L1828.96 602.964L1851.32 564.436L1873.68 602.964ZM1851.32 492.712C1848.57 492.712 1846.27 491.795 1844.44 489.96C1842.61 488.125 1841.69 485.832 1841.69 483.08C1841.69 480.328 1842.61 478.035 1844.44 476.2C1846.27 474.365 1848.57 473.448 1851.32 473.448C1854.07 473.448 1856.37 474.365 1858.2 476.2C1860.03 478.035 1860.95 480.328 1860.95 483.08C1860.95 485.832 1860.03 488.125 1858.2 489.96C1856.37 491.795 1854.07 492.712 1851.32 492.712Z" fill="white"/>
<path d="M2026.68 602.964L2040.78 594.708L2012.92 546.548V531.068L2054.89 506.816L2046.8 492.884L2012.92 512.492V506.3C2018.08 504.695 2022.32 501.828 2025.65 497.7C2028.86 493.457 2030.46 488.584 2030.46 483.08C2030.46 478.264 2029.32 473.964 2027.02 470.18C2024.73 466.396 2021.63 463.415 2017.74 461.236C2013.72 458.943 2009.25 457.796 2004.32 457.796C1999.39 457.796 1994.97 458.943 1991.08 461.236C1987.06 463.415 1983.91 466.396 1981.62 470.18C1979.32 473.964 1978.18 478.264 1978.18 483.08C1978.18 488.584 1979.84 493.457 1983.16 497.7C1986.37 501.828 1990.56 504.695 1995.72 506.3V512.492L1961.84 492.884L1953.75 506.816L1995.72 531.068V546.548L1967.86 594.708L1981.96 602.964L2004.32 564.436L2026.68 602.964ZM2004.32 492.712C2001.57 492.712 1999.27 491.795 1997.44 489.96C1995.61 488.125 1994.69 485.832 1994.69 483.08C1994.69 480.328 1995.61 478.035 1997.44 476.2C1999.27 474.365 2001.57 473.448 2004.32 473.448C2007.07 473.448 2009.37 474.365 2011.2 476.2C2013.03 478.035 2013.95 480.328 2013.95 483.08C2013.95 485.832 2013.03 488.125 2011.2 489.96C2009.37 491.795 2007.07 492.712 2004.32 492.712Z" fill="white"/>
<path d="M1567.68 787.964L1581.78 779.708L1553.92 731.548V716.068L1595.89 691.816L1587.8 677.884L1553.92 697.492V691.3C1559.08 689.695 1563.32 686.828 1566.65 682.7C1569.86 678.457 1571.46 673.584 1571.46 668.08C1571.46 663.264 1570.32 658.964 1568.02 655.18C1565.73 651.396 1562.63 648.415 1558.74 646.236C1554.72 643.943 1550.25 642.796 1545.32 642.796C1540.39 642.796 1535.97 643.943 1532.08 646.236C1528.06 648.415 1524.91 651.396 1522.62 655.18C1520.32 658.964 1519.18 663.264 1519.18 668.08C1519.18 673.584 1520.84 678.457 1524.16 682.7C1527.37 686.828 1531.56 689.695 1536.72 691.3V697.492L1502.84 677.884L1494.75 691.816L1536.72 716.068V731.548L1508.86 779.708L1522.96 787.964L1545.32 749.436L1567.68 787.964ZM1545.32 677.712C1542.57 677.712 1540.27 676.795 1538.44 674.96C1536.61 673.125 1535.69 670.832 1535.69 668.08C1535.69 665.328 1536.61 663.035 1538.44 661.2C1540.27 659.365 1542.57 658.448 1545.32 658.448C1548.07 658.448 1550.37 659.365 1552.2 661.2C1554.03 663.035 1554.95 665.328 1554.95 668.08C1554.95 670.832 1554.03 673.125 1552.2 674.96C1550.37 676.795 1548.07 677.712 1545.32 677.712Z" fill="white"/>
<path d="M1720.68 787.964L1734.78 779.708L1706.92 731.548V716.068L1748.89 691.816L1740.8 677.884L1706.92 697.492V691.3C1712.08 689.695 1716.32 686.828 1719.65 682.7C1722.86 678.457 1724.46 673.584 1724.46 668.08C1724.46 663.264 1723.32 658.964 1721.02 655.18C1718.73 651.396 1715.63 648.415 1711.74 646.236C1707.72 643.943 1703.25 642.796 1698.32 642.796C1693.39 642.796 1688.97 643.943 1685.08 646.236C1681.06 648.415 1677.91 651.396 1675.62 655.18C1673.32 658.964 1672.18 663.264 1672.18 668.08C1672.18 673.584 1673.84 678.457 1677.16 682.7C1680.37 686.828 1684.56 689.695 1689.72 691.3V697.492L1655.84 677.884L1647.75 691.816L1689.72 716.068V731.548L1661.86 779.708L1675.96 787.964L1698.32 749.436L1720.68 787.964ZM1698.32 677.712C1695.57 677.712 1693.27 676.795 1691.44 674.96C1689.61 673.125 1688.69 670.832 1688.69 668.08C1688.69 665.328 1689.61 663.035 1691.44 661.2C1693.27 659.365 1695.57 658.448 1698.32 658.448C1701.07 658.448 1703.37 659.365 1705.2 661.2C1707.03 663.035 1707.95 665.328 1707.95 668.08C1707.95 670.832 1707.03 673.125 1705.2 674.96C1703.37 676.795 1701.07 677.712 1698.32 677.712Z" fill="white"/>
<path d="M1873.68 787.964L1887.78 779.708L1859.92 731.548V716.068L1901.89 691.816L1893.8 677.884L1859.92 697.492V691.3C1865.08 689.695 1869.32 686.828 1872.65 682.7C1875.86 678.457 1877.46 673.584 1877.46 668.08C1877.46 663.264 1876.32 658.964 1874.02 655.18C1871.73 651.396 1868.63 648.415 1864.74 646.236C1860.72 643.943 1856.25 642.796 1851.32 642.796C1846.39 642.796 1841.97 643.943 1838.08 646.236C1834.06 648.415 1830.91 651.396 1828.62 655.18C1826.32 658.964 1825.18 663.264 1825.18 668.08C1825.18 673.584 1826.84 678.457 1830.16 682.7C1833.37 686.828 1837.56 689.695 1842.72 691.3V697.492L1808.84 677.884L1800.75 691.816L1842.72 716.068V731.548L1814.86 779.708L1828.96 787.964L1851.32 749.436L1873.68 787.964ZM1851.32 677.712C1848.57 677.712 1846.27 676.795 1844.44 674.96C1842.61 673.125 1841.69 670.832 1841.69 668.08C1841.69 665.328 1842.61 663.035 1844.44 661.2C1846.27 659.365 1848.57 658.448 1851.32 658.448C1854.07 658.448 1856.37 659.365 1858.2 661.2C1860.03 663.035 1860.95 665.328 1860.95 668.08C1860.95 670.832 1860.03 673.125 1858.2 674.96C1856.37 676.795 1854.07 677.712 1851.32 677.712Z" fill="white"/>
<path d="M2026.68 787.964L2040.78 779.708L2012.92 731.548V716.068L2054.89 691.816L2046.8 677.884L2012.92 697.492V691.3C2018.08 689.695 2022.32 686.828 2025.65 682.7C2028.86 678.457 2030.46 673.584 2030.46 668.08C2030.46 663.264 2029.32 658.964 2027.02 655.18C2024.73 651.396 2021.63 648.415 2017.74 646.236C2013.72 643.943 2009.25 642.796 2004.32 642.796C1999.39 642.796 1994.97 643.943 1991.08 646.236C1987.06 648.415 1983.91 651.396 1981.62 655.18C1979.32 658.964 1978.18 663.264 1978.18 668.08C1978.18 673.584 1979.84 678.457 1983.16 682.7C1986.37 686.828 1990.56 689.695 1995.72 691.3V697.492L1961.84 677.884L1953.75 691.816L1995.72 716.068V731.548L1967.86 779.708L1981.96 787.964L2004.32 749.436L2026.68 787.964ZM2004.32 677.712C2001.57 677.712 1999.27 676.795 1997.44 674.96C1995.61 673.125 1994.69 670.832 1994.69 668.08C1994.69 665.328 1995.61 663.035 1997.44 661.2C1999.27 659.365 2001.57 658.448 2004.32 658.448C2007.07 658.448 2009.37 659.365 2011.2 661.2C2013.03 663.035 2013.95 665.328 2013.95 668.08C2013.95 670.832 2013.03 673.125 2011.2 674.96C2009.37 676.795 2007.07 677.712 2004.32 677.712Z" fill="white"/>
<rect x="759" y="366" width="319" height="106" fill="#EF6300"/>
<path d="M875.828 421.48C875.828 417.96 872.948 415.08 869.428 415.08H865.748L856.628 421.24H848.628V389H879.028V397H856.628V411.56L863.268 407.08H869.428C877.348 407.08 883.828 413.48 883.828 421.48V430.6C883.828 438.6 877.428 445 869.428 445H863.028C855.108 445 848.628 438.6 848.628 430.6V429.8H856.628V430.6C856.628 434.12 859.508 437 863.028 437H869.428C873.028 437 875.828 434.2 875.828 430.6V421.48ZM906.563 445C898.323 445 891.523 438.44 891.523 430.52V403.4C891.523 395.4 898.323 389 906.563 389H913.283C921.603 389 928.323 395.4 928.323 403.4V430.52C928.323 438.44 921.603 445 913.283 445H906.563ZM899.443 430.52C899.443 434.04 902.723 436.92 906.563 436.92H913.283C914.323 436.92 915.363 436.68 916.243 436.28L899.443 408.92V430.52ZM902.323 398.2L920.403 427.72V403.4C920.403 399.8 917.283 397 913.283 397H906.563C904.963 397 903.523 397.48 902.323 398.2ZM937.976 445V432.2L965.176 398.92V389H973.176V401.8L945.976 435.08V445H937.976ZM933.176 399.64C933.176 393.72 937.896 389 943.816 389C949.656 389 954.376 393.72 954.376 399.64C954.376 405.56 949.656 410.28 943.816 410.28C937.896 410.28 933.176 405.56 933.176 399.64ZM941.176 399.64C941.176 401.08 942.376 402.28 943.816 402.28C945.256 402.28 946.376 401.08 946.376 399.64C946.376 398.2 945.256 397 943.816 397C942.376 397 941.176 398.2 941.176 399.64ZM956.776 434.36C956.776 428.44 961.496 423.72 967.416 423.72C973.256 423.72 977.976 428.44 977.976 434.36C977.976 440.28 973.256 445 967.416 445C961.496 445 956.776 440.28 956.776 434.36ZM964.776 434.36C964.776 435.8 965.976 437 967.416 437C968.856 437 969.976 435.8 969.976 434.36C969.976 432.92 968.856 431.72 967.416 431.72C965.976 431.72 964.776 432.92 964.776 434.36Z" fill="black"/>
<rect x="1614" y="287" width="319" height="106" fill="#EF6300"/>
<rect x="2720" y="308" width="319" height="106" fill="#EF6300"/>
<rect x="2720" y="655" width="319" height="106" fill="#EF6300"/>
<rect x="2720" y="1006" width="319" height="106" fill="#EF6300"/>
<path d="M1711.31 366V347.52L1738.51 332.24V324.4C1738.51 320.8 1735.71 318 1732.11 318H1725.71C1722.19 318 1719.31 320.88 1719.31 324.4V327.2H1711.31V324.4C1711.31 316.4 1717.79 310 1725.71 310H1732.11C1740.11 310 1746.51 316.4 1746.51 324.4V336.96L1719.31 352.24V358H1746.51V366H1711.31ZM1782.2 342.48C1782.2 338.96 1779.32 336.08 1775.8 336.08H1772.12L1763 342.24H1755V310H1785.4V318H1763V332.56L1769.64 328.08H1775.8C1783.72 328.08 1790.2 334.48 1790.2 342.48V351.6C1790.2 359.6 1783.8 366 1775.8 366H1769.4C1761.48 366 1755 359.6 1755 351.6V350.8H1763V351.6C1763 355.12 1765.88 358 1769.4 358H1775.8C1779.4 358 1782.2 355.2 1782.2 351.6V342.48ZM1799.89 366V353.2L1827.09 319.92V310H1835.09V322.8L1807.89 356.08V366H1799.89ZM1795.09 320.64C1795.09 314.72 1799.81 310 1805.73 310C1811.57 310 1816.29 314.72 1816.29 320.64C1816.29 326.56 1811.57 331.28 1805.73 331.28C1799.81 331.28 1795.09 326.56 1795.09 320.64ZM1803.09 320.64C1803.09 322.08 1804.29 323.28 1805.73 323.28C1807.17 323.28 1808.29 322.08 1808.29 320.64C1808.29 319.2 1807.17 318 1805.73 318C1804.29 318 1803.09 319.2 1803.09 320.64ZM1818.69 355.36C1818.69 349.44 1823.41 344.72 1829.33 344.72C1835.17 344.72 1839.89 349.44 1839.89 355.36C1839.89 361.28 1835.17 366 1829.33 366C1823.41 366 1818.69 361.28 1818.69 355.36ZM1826.69 355.36C1826.69 356.8 1827.89 358 1829.33 358C1830.77 358 1831.89 356.8 1831.89 355.36C1831.89 353.92 1830.77 352.72 1829.33 352.72C1827.89 352.72 1826.69 353.92 1826.69 355.36Z" fill="black"/>
<path d="M2788.98 387V379H2802.58V340.28L2788.98 348.28V339L2802.58 331H2810.58V379H2824.18V387H2788.98ZM2829.46 387V368.52L2856.66 353.24V345.4C2856.66 341.8 2853.86 339 2850.26 339H2843.86C2840.34 339 2837.46 341.88 2837.46 345.4V348.2H2829.46V345.4C2829.46 337.4 2835.94 331 2843.86 331H2850.26C2858.26 331 2864.66 337.4 2864.66 345.4V357.96L2837.46 373.24V379H2864.66V387H2829.46ZM2872.58 387V378.6H2881.78V387H2872.58ZM2915.97 363.48C2915.97 359.96 2913.09 357.08 2909.57 357.08H2905.89L2896.77 363.24H2888.77V331H2919.17V339H2896.77V353.56L2903.41 349.08H2909.57C2917.49 349.08 2923.97 355.48 2923.97 363.48V372.6C2923.97 380.6 2917.57 387 2909.57 387H2903.17C2895.25 387 2888.77 380.6 2888.77 372.6V371.8H2896.77V372.6C2896.77 376.12 2899.65 379 2903.17 379H2909.57C2913.17 379 2915.97 376.2 2915.97 372.6V363.48ZM2933.66 387V374.2L2960.86 340.92V331H2968.86V343.8L2941.66 377.08V387H2933.66ZM2928.86 341.64C2928.86 335.72 2933.58 331 2939.5 331C2945.34 331 2950.06 335.72 2950.06 341.64C2950.06 347.56 2945.34 352.28 2939.5 352.28C2933.58 352.28 2928.86 347.56 2928.86 341.64ZM2936.86 341.64C2936.86 343.08 2938.06 344.28 2939.5 344.28C2940.94 344.28 2942.06 343.08 2942.06 341.64C2942.06 340.2 2940.94 339 2939.5 339C2938.06 339 2936.86 340.2 2936.86 341.64ZM2952.46 376.36C2952.46 370.44 2957.18 365.72 2963.1 365.72C2968.94 365.72 2973.66 370.44 2973.66 376.36C2973.66 382.28 2968.94 387 2963.1 387C2957.18 387 2952.46 382.28 2952.46 376.36ZM2960.46 376.36C2960.46 377.8 2961.66 379 2963.1 379C2964.54 379 2965.66 377.8 2965.66 376.36C2965.66 374.92 2964.54 373.72 2963.1 373.72C2961.66 373.72 2960.46 374.92 2960.46 376.36Z" fill="black"/>
<path d="M2559.12 392V336H2567.12V384H2590.16V392H2559.12ZM2608.87 392C2600.95 392 2594.47 385.6 2594.47 377.6V374.8H2602.47V377.6C2602.47 381.12 2605.35 384 2608.87 384H2615.27C2618.87 384 2621.67 381.2 2621.67 377.6V373.6C2621.67 370 2618.87 367.2 2615.27 367.2H2609.67V359.2H2615.27C2618.87 359.2 2621.67 356.4 2621.67 352.8V350.4C2621.67 346.8 2618.87 344 2615.27 344H2608.87C2605.35 344 2602.47 346.88 2602.47 350.4V353.2H2594.47V350.4C2594.47 342.4 2600.95 336 2608.87 336H2615.27C2623.27 336 2629.67 342.4 2629.67 350.4V352.8C2629.67 356.88 2627.99 360.56 2625.27 363.2C2627.99 365.84 2629.67 369.52 2629.67 373.6V377.6C2629.67 385.6 2623.27 392 2615.27 392H2608.87Z" fill="white"/>
<path d="M2563.41 741V685H2571.41V733H2594.45V741H2563.41ZM2592.05 717.8V685H2600.05V709.8H2611.25V689.8H2619.25V709.8H2627.25V717.8H2619.25V741H2611.25V717.8H2592.05Z" fill="white"/>
<path d="M2559.97 1090V1034H2567.97V1082H2591.01V1090H2559.97ZM2622.94 1066.48C2622.94 1062.96 2620.06 1060.08 2616.54 1060.08H2612.86L2603.74 1066.24H2595.74V1034H2626.14V1042H2603.74V1056.56L2610.38 1052.08H2616.54C2624.46 1052.08 2630.94 1058.48 2630.94 1066.48V1075.6C2630.94 1083.6 2624.54 1090 2616.54 1090H2610.14C2602.22 1090 2595.74 1083.6 2595.74 1075.6V1074.8H2603.74V1075.6C2603.74 1079.12 2606.62 1082 2610.14 1082H2616.54C2620.14 1082 2622.94 1079.2 2622.94 1075.6V1066.48Z" fill="white"/>
<path d="M2853.45 734C2845.53 734 2839.05 727.6 2839.05 719.6V692.4C2839.05 684.4 2845.45 678 2853.45 678H2859.85C2867.85 678 2874.25 684.4 2874.25 692.4V694.8H2866.25V692.4C2866.25 688.8 2863.45 686 2859.85 686H2853.45C2849.85 686 2847.05 688.8 2847.05 692.4V702.96L2853.69 698.48H2859.85C2867.77 698.48 2874.25 704.88 2874.25 712.88V719.6C2874.25 727.6 2867.85 734 2859.85 734H2853.45ZM2847.05 719.6C2847.05 723.12 2849.93 726 2853.45 726H2859.85C2863.45 726 2866.25 723.2 2866.25 719.6V712.88C2866.25 709.36 2863.37 706.48 2859.85 706.48H2856.17L2847.05 712.64V719.6ZM2884.72 734V721.2L2911.92 687.92V678H2919.92V690.8L2892.72 724.08V734H2884.72ZM2879.92 688.64C2879.92 682.72 2884.64 678 2890.56 678C2896.4 678 2901.12 682.72 2901.12 688.64C2901.12 694.56 2896.4 699.28 2890.56 699.28C2884.64 699.28 2879.92 694.56 2879.92 688.64ZM2887.92 688.64C2887.92 690.08 2889.12 691.28 2890.56 691.28C2892 691.28 2893.12 690.08 2893.12 688.64C2893.12 687.2 2892 686 2890.56 686C2889.12 686 2887.92 687.2 2887.92 688.64ZM2903.52 723.36C2903.52 717.44 2908.24 712.72 2914.16 712.72C2920 712.72 2924.72 717.44 2924.72 723.36C2924.72 729.28 2920 734 2914.16 734C2908.24 734 2903.52 729.28 2903.52 723.36ZM2911.52 723.36C2911.52 724.8 2912.72 726 2914.16 726C2915.6 726 2916.72 724.8 2916.72 723.36C2916.72 721.92 2915.6 720.72 2914.16 720.72C2912.72 720.72 2911.52 721.92 2911.52 723.36Z" fill="black"/>
<path d="M2852.18 1085C2844.26 1085 2837.78 1078.6 2837.78 1070.6V1067.8H2845.78V1070.6C2845.78 1074.12 2848.66 1077 2852.18 1077H2858.58C2862.18 1077 2864.98 1074.2 2864.98 1070.6V1066.6C2864.98 1063 2862.18 1060.2 2858.58 1060.2H2852.98V1052.2H2858.58C2862.18 1052.2 2864.98 1049.4 2864.98 1045.8V1043.4C2864.98 1039.8 2862.18 1037 2858.58 1037H2852.18C2848.66 1037 2845.78 1039.88 2845.78 1043.4V1046.2H2837.78V1043.4C2837.78 1035.4 2844.26 1029 2852.18 1029H2858.58C2866.58 1029 2872.98 1035.4 2872.98 1043.4V1045.8C2872.98 1049.88 2871.3 1053.56 2868.58 1056.2C2871.3 1058.84 2872.98 1062.52 2872.98 1066.6V1070.6C2872.98 1078.6 2866.58 1085 2858.58 1085H2852.18ZM2883.79 1085V1072.2L2910.99 1038.92V1029H2918.99V1041.8L2891.79 1075.08V1085H2883.79ZM2878.99 1039.64C2878.99 1033.72 2883.71 1029 2889.63 1029C2895.47 1029 2900.19 1033.72 2900.19 1039.64C2900.19 1045.56 2895.47 1050.28 2889.63 1050.28C2883.71 1050.28 2878.99 1045.56 2878.99 1039.64ZM2886.99 1039.64C2886.99 1041.08 2888.19 1042.28 2889.63 1042.28C2891.07 1042.28 2892.19 1041.08 2892.19 1039.64C2892.19 1038.2 2891.07 1037 2889.63 1037C2888.19 1037 2886.99 1038.2 2886.99 1039.64ZM2902.59 1074.36C2902.59 1068.44 2907.31 1063.72 2913.23 1063.72C2919.07 1063.72 2923.79 1068.44 2923.79 1074.36C2923.79 1080.28 2919.07 1085 2913.23 1085C2907.31 1085 2902.59 1080.28 2902.59 1074.36ZM2910.59 1074.36C2910.59 1075.8 2911.79 1077 2913.23 1077C2914.67 1077 2915.79 1075.8 2915.79 1074.36C2915.79 1072.92 2914.67 1071.72 2913.23 1071.72C2911.79 1071.72 2910.59 1072.92 2910.59 1074.36Z" fill="black"/>
</svg>
