<svg width="601" height="152" viewBox="0 0 601 152" fill="none" xmlns="http://www.w3.org/2000/svg">
<path d="M137.072 86.5799V105.844H139.91C141.63 109.37 144.21 113.068 151.176 113.068C157.712 113.068 163.99 107.908 163.99 96.1259C163.99 84.5159 157.712 79.3559 151.176 79.3559C144.21 79.3559 141.63 83.0539 139.91 86.5799H137.072ZM129.848 73.9379H137.072V81.2479H139.91C141.286 77.2919 146.016 72.9059 152.208 72.9059C163.56 72.9059 171.73 80.9899 171.73 96.1259C171.73 111.434 163.56 119.518 152.208 119.518C146.016 119.518 141.286 115.132 139.91 111.176H137.072V135.342H129.848V73.9379ZM185.475 91.9119H211.361C210.501 85.9779 206.889 79.3559 198.375 79.3559C190.979 79.3559 186.593 84.1719 185.475 91.9119ZM218.843 95.6099V98.3619H185.303C185.819 107.306 190.377 112.982 198.375 112.982C203.621 112.982 209.297 110.144 210.501 104.296H217.983C216.349 113.842 207.663 119.432 198.375 119.432C185.905 119.432 177.907 110.402 177.907 96.1259C177.907 81.9359 185.905 72.9059 198.375 72.9059C210.415 72.9059 218.843 81.5919 218.843 95.6099ZM251.95 73.9379V80.3879H234.578V118.4H227.268V73.9379H234.578V78.7539H237.33C239.996 74.2819 241.114 73.9379 251.95 73.9379ZM288.7 102.146H296.182C294.806 112.552 286.206 119.432 276.144 119.432C263.674 119.432 255.676 110.402 255.676 96.2119C255.676 80.5599 265.05 72.9059 276.144 72.9059C285.948 72.9059 294.29 77.0339 295.752 88.2999H288.184C287.066 82.7099 283.024 79.3559 276.144 79.3559C268.146 79.3559 262.9 85.9779 262.9 96.2119C262.9 106.36 267.544 112.982 276.144 112.982C283.884 112.982 288.012 107.564 288.7 102.146ZM309.519 91.9119H335.405C334.545 85.9779 330.933 79.3559 322.419 79.3559C315.023 79.3559 310.637 84.1719 309.519 91.9119ZM342.887 95.6099V98.3619H309.347C309.863 107.306 314.421 112.982 322.419 112.982C327.665 112.982 333.341 110.144 334.545 104.296H342.027C340.393 113.842 331.707 119.432 322.419 119.432C309.949 119.432 301.951 110.402 301.951 96.1259C301.951 81.9359 309.949 72.9059 322.419 72.9059C334.459 72.9059 342.887 81.5919 342.887 95.6099ZM388.035 89.5039V118.4H380.811V88.6439C380.811 84.7739 380.381 79.4419 372.297 79.4419C363.267 79.4419 362.149 84.8599 361.375 86.5799H358.537V118.4H351.313V74.0239H358.537V81.1619H361.375C363.697 75.2279 367.997 72.9059 373.673 72.9059C381.585 72.9059 388.035 76.8619 388.035 89.5039ZM418.96 80.3879H407.866V107.994C407.866 110.144 407.866 111.95 412.768 111.95H418.874V118.4H409.07C402.448 118.4 400.556 113.326 400.556 109.37V80.3879H394.364V73.9379H400.556V60.6079H407.866V78.7539H410.704C411.564 76.6039 412.596 73.9379 415.606 73.9379H418.96V80.3879Z" fill="white"/>
<path d="M445.844 89.944C442.5 89.944 439.764 88.8293 437.636 86.6C435.559 84.32 434.52 80.9507 434.52 76.492C434.52 72.0333 435.559 68.6893 437.636 66.46C439.764 64.18 442.5 63.04 445.844 63.04C449.188 63.04 451.899 64.18 453.976 66.46C456.104 68.6893 457.168 72.0333 457.168 76.492C457.168 80.9507 456.104 84.32 453.976 86.6C451.899 88.8293 449.188 89.944 445.844 89.944ZM445.844 85.84C447.668 85.84 449.137 85.2067 450.252 83.94C451.417 82.6733 452 80.824 452 78.392V74.592C452 72.16 451.417 70.3107 450.252 69.044C449.137 67.7773 447.668 67.144 445.844 67.144C444.02 67.144 442.525 67.7773 441.36 69.044C440.245 70.3107 439.688 72.16 439.688 74.592V78.392C439.688 80.824 440.245 82.6733 441.36 83.94C442.525 85.2067 444.02 85.84 445.844 85.84ZM471.76 63.952H477.232L465.072 86.752H459.6L471.76 63.952ZM446.528 94.2H452L439.84 117H434.368L446.528 94.2ZM465.756 117.912C462.412 117.912 459.676 116.797 457.548 114.568C455.471 112.288 454.432 108.919 454.432 104.46C454.432 100.001 455.471 96.6573 457.548 94.428C459.676 92.148 462.412 91.008 465.756 91.008C469.1 91.008 471.811 92.148 473.888 94.428C476.016 96.6573 477.08 100.001 477.08 104.46C477.08 108.919 476.016 112.288 473.888 114.568C471.811 116.797 469.1 117.912 465.756 117.912ZM465.756 113.808C467.58 113.808 469.049 113.175 470.164 111.908C471.329 110.641 471.912 108.792 471.912 106.36V102.56C471.912 100.128 471.329 98.2787 470.164 97.012C469.049 95.7453 467.58 95.112 465.756 95.112C463.932 95.112 462.437 95.7453 461.272 97.012C460.157 98.2787 459.6 100.128 459.6 102.56V106.36C459.6 108.792 460.157 110.641 461.272 111.908C462.437 113.175 463.932 113.808 465.756 113.808Z" fill="#EF6300"/>
<path d="M437.636 86.6L436.527 87.6102L436.539 87.6231L436.551 87.6357L437.636 86.6ZM437.636 66.46L436.539 65.4365L436.539 65.4374L437.636 66.46ZM453.976 66.46L452.867 67.4702L452.879 67.4831L452.891 67.4957L453.976 66.46ZM453.976 86.6L452.879 85.5765L452.879 85.5774L453.976 86.6ZM450.252 83.94L449.148 82.9244L449.137 82.9366L449.126 82.9491L450.252 83.94ZM450.252 69.044L449.126 70.0349L449.137 70.0474L449.148 70.0596L450.252 69.044ZM441.36 69.044L440.256 68.0284L440.245 68.0406L440.234 68.0531L441.36 69.044ZM441.36 83.94L440.234 84.9309L440.245 84.9434L440.256 84.9556L441.36 83.94ZM471.76 63.952V62.452H470.86L470.436 63.2461L471.76 63.952ZM477.232 63.952L478.556 64.6579L479.732 62.452H477.232V63.952ZM465.072 86.752V88.252H465.972L466.396 87.4579L465.072 86.752ZM459.6 86.752L458.276 86.0461L457.1 88.252H459.6V86.752ZM446.528 94.2V92.7H445.628L445.204 93.4941L446.528 94.2ZM452 94.2L453.324 94.9059L454.5 92.7H452V94.2ZM439.84 117V118.5H440.74L441.164 117.706L439.84 117ZM434.368 117L433.044 116.294L431.868 118.5H434.368V117ZM457.548 114.568L456.439 115.578L456.451 115.591L456.463 115.604L457.548 114.568ZM457.548 94.428L456.451 93.4045L456.451 93.4054L457.548 94.428ZM473.888 94.428L472.779 95.4382L472.791 95.4511L472.803 95.4637L473.888 94.428ZM473.888 114.568L472.791 113.545L472.791 113.545L473.888 114.568ZM470.164 111.908L469.06 110.892L469.049 110.905L469.038 110.917L470.164 111.908ZM470.164 97.012L469.038 98.0029L469.049 98.0154L469.06 98.0276L470.164 97.012ZM461.272 97.012L460.168 95.9964L460.157 96.0086L460.146 96.0211L461.272 97.012ZM461.272 111.908L460.146 112.899L460.157 112.911L460.168 112.924L461.272 111.908ZM445.844 89.944V88.444C442.871 88.444 440.54 87.4702 438.721 85.5643L437.636 86.6L436.551 87.6357C438.988 90.1885 442.129 91.444 445.844 91.444V89.944ZM437.636 86.6L438.745 85.5898C437.012 83.6874 436.02 80.7416 436.02 76.492H434.52H433.02C433.02 81.1597 434.106 84.9526 436.527 87.6102L437.636 86.6ZM434.52 76.492H436.02C436.02 72.2392 437.013 69.3291 438.733 67.4826L437.636 66.46L436.539 65.4374C434.104 68.0496 433.02 71.8274 433.02 76.492H434.52ZM437.636 66.46L438.733 67.4835C440.555 65.5311 442.882 64.54 445.844 64.54V63.04V61.54C442.118 61.54 438.973 62.8288 436.539 65.4365L437.636 66.46ZM445.844 63.04V64.54C448.806 64.54 451.1 65.5304 452.867 67.4702L453.976 66.46L455.085 65.4498C452.697 62.8296 449.57 61.54 445.844 61.54V63.04ZM453.976 66.46L452.891 67.4957C454.654 69.3427 455.668 72.2476 455.668 76.492H457.168H458.668C458.668 71.8191 457.554 68.036 455.061 65.4243L453.976 66.46ZM457.168 76.492H455.668C455.668 80.7334 454.655 83.6739 452.879 85.5765L453.976 86.6L455.073 87.6235C457.553 84.9661 458.668 81.1679 458.668 76.492H457.168ZM453.976 86.6L452.879 85.5774C451.114 87.4708 448.817 88.444 445.844 88.444V89.944V91.444C449.559 91.444 452.683 90.1879 455.073 87.6226L453.976 86.6ZM445.844 85.84V87.34C448.06 87.34 449.954 86.5496 451.378 84.9309L450.252 83.94L449.126 82.9491C448.321 83.8637 447.276 84.34 445.844 84.34V85.84ZM450.252 83.94L451.356 84.9556C452.864 83.3158 453.5 81.045 453.5 78.392H452H450.5C450.5 80.603 449.97 82.0309 449.148 82.9244L450.252 83.94ZM452 78.392H453.5V74.592H452H450.5V78.392H452ZM452 74.592H453.5C453.5 71.939 452.864 69.6682 451.356 68.0284L450.252 69.044L449.148 70.0596C449.97 70.9531 450.5 72.381 450.5 74.592H452ZM450.252 69.044L451.378 68.0531C449.954 66.4343 448.06 65.644 445.844 65.644V67.144V68.644C447.276 68.644 448.321 69.1203 449.126 70.0349L450.252 69.044ZM445.844 67.144V65.644C443.629 65.644 441.724 66.4329 440.256 68.0284L441.36 69.044L442.464 70.0596C443.327 69.1218 444.411 68.644 445.844 68.644V67.144ZM441.36 69.044L440.234 68.0531C438.791 69.6929 438.188 71.9538 438.188 74.592H439.688H441.188C441.188 72.3662 441.7 70.9284 442.486 70.0349L441.36 69.044ZM439.688 74.592H438.188V78.392H439.688H441.188V74.592H439.688ZM439.688 78.392H438.188C438.188 81.0302 438.791 83.2911 440.234 84.9309L441.36 83.94L442.486 82.9491C441.7 82.0556 441.188 80.6178 441.188 78.392H439.688ZM441.36 83.94L440.256 84.9556C441.724 86.5511 443.629 87.34 445.844 87.34V85.84V84.34C444.411 84.34 443.327 83.8622 442.464 82.9244L441.36 83.94ZM471.76 63.952V65.452H477.232V63.952V62.452H471.76V63.952ZM477.232 63.952L475.908 63.2461L463.748 86.0461L465.072 86.752L466.396 87.4579L478.556 64.6579L477.232 63.952ZM465.072 86.752V85.252H459.6V86.752V88.252H465.072V86.752ZM459.6 86.752L460.924 87.4579L473.084 64.6579L471.76 63.952L470.436 63.2461L458.276 86.0461L459.6 86.752ZM446.528 94.2V95.7H452V94.2V92.7H446.528V94.2ZM452 94.2L450.676 93.4941L438.516 116.294L439.84 117L441.164 117.706L453.324 94.9059L452 94.2ZM439.84 117V115.5H434.368V117V118.5H439.84V117ZM434.368 117L435.692 117.706L447.852 94.9059L446.528 94.2L445.204 93.4941L433.044 116.294L434.368 117ZM465.756 117.912V116.412C462.783 116.412 460.452 115.438 458.633 113.532L457.548 114.568L456.463 115.604C458.9 118.156 462.041 119.412 465.756 119.412V117.912ZM457.548 114.568L458.657 113.558C456.924 111.655 455.932 108.71 455.932 104.46H454.432H452.932C452.932 109.128 454.018 112.921 456.439 115.578L457.548 114.568ZM454.432 104.46H455.932C455.932 100.207 456.925 97.2971 458.645 95.4506L457.548 94.428L456.451 93.4054C454.016 96.0176 452.932 99.7954 452.932 104.46H454.432ZM457.548 94.428L458.645 95.4515C460.467 93.4991 462.794 92.508 465.756 92.508V91.008V89.508C462.03 89.508 458.885 90.7969 456.451 93.4045L457.548 94.428ZM465.756 91.008V92.508C468.718 92.508 471.012 93.4984 472.779 95.4382L473.888 94.428L474.997 93.4178C472.609 90.7976 469.482 89.508 465.756 89.508V91.008ZM473.888 94.428L472.803 95.4637C474.566 97.3107 475.58 100.216 475.58 104.46H477.08H478.58C478.58 99.7871 477.466 96.004 474.973 93.3923L473.888 94.428ZM477.08 104.46H475.58C475.58 108.701 474.567 111.642 472.791 113.545L473.888 114.568L474.985 115.591C477.465 112.934 478.58 109.136 478.58 104.46H477.08ZM473.888 114.568L472.791 113.545C471.026 115.439 468.729 116.412 465.756 116.412V117.912V119.412C469.471 119.412 472.595 118.156 474.985 115.591L473.888 114.568ZM465.756 113.808V115.308C467.972 115.308 469.866 114.518 471.29 112.899L470.164 111.908L469.038 110.917C468.233 111.832 467.188 112.308 465.756 112.308V113.808ZM470.164 111.908L471.268 112.924C472.776 111.284 473.412 109.013 473.412 106.36H471.912H470.412C470.412 108.571 469.882 109.999 469.06 110.892L470.164 111.908ZM471.912 106.36H473.412V102.56H471.912H470.412V106.36H471.912ZM471.912 102.56H473.412C473.412 99.907 472.776 97.6362 471.268 95.9964L470.164 97.012L469.06 98.0276C469.882 98.9211 470.412 100.349 470.412 102.56H471.912ZM470.164 97.012L471.29 96.0211C469.866 94.4023 467.972 93.612 465.756 93.612V95.112V96.612C467.188 96.612 468.233 97.0883 469.038 98.0029L470.164 97.012ZM465.756 95.112V93.612C463.541 93.612 461.636 94.4009 460.168 95.9964L461.272 97.012L462.376 98.0276C463.239 97.0898 464.323 96.612 465.756 96.612V95.112ZM461.272 97.012L460.146 96.0211C458.703 97.6609 458.1 99.9218 458.1 102.56H459.6H461.1C461.1 100.334 461.612 98.8964 462.398 98.0029L461.272 97.012ZM459.6 102.56H458.1V106.36H459.6H461.1V102.56H459.6ZM459.6 106.36H458.1C458.1 108.998 458.703 111.259 460.146 112.899L461.272 111.908L462.398 110.917C461.612 110.024 461.1 108.586 461.1 106.36H459.6ZM461.272 111.908L460.168 112.924C461.636 114.519 463.541 115.308 465.756 115.308V113.808V112.308C464.323 112.308 463.239 111.83 462.376 110.892L461.272 111.908Z" fill="#EF6300"/>
<path d="M272.683 36.6C273.763 36.6 274.603 35.784 274.603 34.704V31.08C274.603 30 273.763 29.16 272.683 29.16H270.763C269.683 29.16 268.843 30 268.843 31.08V34.704C268.843 35.784 269.683 36.576 270.763 36.6H272.683ZM266.443 34.704V31.08C266.443 28.68 268.363 26.76 270.763 26.76H272.683C275.083 26.76 277.003 28.68 277.003 31.08V34.704C277.003 37.104 275.083 39 272.683 39H270.763C268.363 39 266.443 37.104 266.443 34.704ZM287.098 28.92L288.562 34.464L288.994 31.56V26.76H291.394V32.28L289.954 39H288.034L286.114 33.264L284.194 39H282.274L280.834 32.28V26.76H283.234V31.56L283.666 34.464L285.13 28.92H287.098ZM295.225 26.76H297.625V28.104L299.617 26.76H301.465C303.841 26.76 305.785 28.68 305.785 31.08V39H303.385V31.08C303.385 30.024 302.521 29.16 301.465 29.16H300.361L297.625 31.008V39H295.225V26.76ZM334.566 26.76V39H332.166V37.656L330.174 39H328.326C325.95 39 324.006 37.056 324.006 34.68V31.08C324.006 28.68 325.95 26.76 328.326 26.76H330.174L332.166 28.104V26.76H334.566ZM326.406 34.68C326.406 35.736 327.27 36.6 328.326 36.6H329.43L332.166 34.752V31.008L329.43 29.16H328.326C327.27 29.16 326.406 30.024 326.406 31.08V34.68Z" fill="white"/>
</svg>
