<svg width="601" height="152" viewBox="0 0 601 152" fill="none" xmlns="http://www.w3.org/2000/svg">
<path d="M272.683 36.6C273.763 36.6 274.603 35.784 274.603 34.704V31.08C274.603 30 273.763 29.16 272.683 29.16H270.763C269.683 29.16 268.843 30 268.843 31.08V34.704C268.843 35.784 269.683 36.576 270.763 36.6H272.683ZM266.443 34.704V31.08C266.443 28.68 268.363 26.76 270.763 26.76H272.683C275.083 26.76 277.003 28.68 277.003 31.08V34.704C277.003 37.104 275.083 39 272.683 39H270.763C268.363 39 266.443 37.104 266.443 34.704ZM287.098 28.92L288.562 34.464L288.994 31.56V26.76H291.394V32.28L289.954 39H288.034L286.114 33.264L284.194 39H282.274L280.834 32.28V26.76H283.234V31.56L283.666 34.464L285.13 28.92H287.098ZM295.225 26.76H297.625V28.104L299.617 26.76H301.465C303.841 26.76 305.785 28.68 305.785 31.08V39H303.385V31.08C303.385 30.024 302.521 29.16 301.465 29.16H300.361L297.625 31.008V39H295.225V26.76ZM334.566 26.76V39H332.166V37.656L330.174 39H328.326C325.95 39 324.006 37.056 324.006 34.68V31.08C324.006 28.68 325.95 26.76 328.326 26.76H330.174L332.166 28.104V26.76H334.566ZM326.406 34.68C326.406 35.736 327.27 36.6 328.326 36.6H329.43L332.166 34.752V31.008L329.43 29.16H328.326C327.27 29.16 326.406 30.024 326.406 31.08V34.68Z" fill="white"/>
<path d="M137.072 86.5799V105.844H139.91C141.63 109.37 144.21 113.068 151.176 113.068C157.712 113.068 163.99 107.908 163.99 96.1259C163.99 84.5159 157.712 79.3559 151.176 79.3559C144.21 79.3559 141.63 83.0539 139.91 86.5799H137.072ZM129.848 73.9379H137.072V81.2479H139.91C141.286 77.2919 146.016 72.9059 152.208 72.9059C163.56 72.9059 171.73 80.9899 171.73 96.1259C171.73 111.434 163.56 119.518 152.208 119.518C146.016 119.518 141.286 115.132 139.91 111.176H137.072V135.342H129.848V73.9379ZM185.475 91.9119H211.361C210.501 85.9779 206.889 79.3559 198.375 79.3559C190.979 79.3559 186.593 84.1719 185.475 91.9119ZM218.843 95.6099V98.3619H185.303C185.819 107.306 190.377 112.982 198.375 112.982C203.621 112.982 209.297 110.144 210.501 104.296H217.983C216.349 113.842 207.663 119.432 198.375 119.432C185.905 119.432 177.907 110.402 177.907 96.1259C177.907 81.9359 185.905 72.9059 198.375 72.9059C210.415 72.9059 218.843 81.5919 218.843 95.6099ZM251.95 73.9379V80.3879H234.578V118.4H227.268V73.9379H234.578V78.7539H237.33C239.996 74.2819 241.114 73.9379 251.95 73.9379ZM288.7 102.146H296.182C294.806 112.552 286.206 119.432 276.144 119.432C263.674 119.432 255.676 110.402 255.676 96.2119C255.676 80.5599 265.05 72.9059 276.144 72.9059C285.948 72.9059 294.29 77.0339 295.752 88.2999H288.184C287.066 82.7099 283.024 79.3559 276.144 79.3559C268.146 79.3559 262.9 85.9779 262.9 96.2119C262.9 106.36 267.544 112.982 276.144 112.982C283.884 112.982 288.012 107.564 288.7 102.146ZM309.519 91.9119H335.405C334.545 85.9779 330.933 79.3559 322.419 79.3559C315.023 79.3559 310.637 84.1719 309.519 91.9119ZM342.887 95.6099V98.3619H309.347C309.863 107.306 314.421 112.982 322.419 112.982C327.665 112.982 333.341 110.144 334.545 104.296H342.027C340.393 113.842 331.707 119.432 322.419 119.432C309.949 119.432 301.951 110.402 301.951 96.1259C301.951 81.9359 309.949 72.9059 322.419 72.9059C334.459 72.9059 342.887 81.5919 342.887 95.6099ZM388.035 89.5039V118.4H380.811V88.6439C380.811 84.7739 380.381 79.4419 372.297 79.4419C363.267 79.4419 362.149 84.8599 361.375 86.5799H358.537V118.4H351.313V74.0239H358.537V81.1619H361.375C363.697 75.2279 367.997 72.9059 373.673 72.9059C381.585 72.9059 388.035 76.8619 388.035 89.5039ZM418.96 80.3879H407.866V107.994C407.866 110.144 407.866 111.95 412.768 111.95H418.874V118.4H409.07C402.448 118.4 400.556 113.326 400.556 109.37V80.3879H394.364V73.9379H400.556V60.6079H407.866V78.7539H410.704C411.564 76.6039 412.596 73.9379 415.606 73.9379H418.96V80.3879Z" fill="white"/>
</svg>
