<svg width="728" height="226" viewBox="0 0 728 226" fill="none" xmlns="http://www.w3.org/2000/svg">
<rect x="626" y="12.8" width="92" height="176" fill="#EF6300"/>
<path d="M26.644 95.9599V134.488H32.32C35.76 141.54 40.92 148.936 54.852 148.936C67.924 148.936 80.48 138.616 80.48 115.052C80.48 91.8318 67.924 81.5118 54.852 81.5118C40.92 81.5118 35.76 88.9079 32.32 95.9599H26.644ZM12.196 70.6759H26.644V85.2959H32.32C35.072 77.3839 44.532 68.6118 56.916 68.6118C79.62 68.6118 95.96 84.7798 95.96 115.052C95.96 145.668 79.62 161.836 56.916 161.836C44.532 161.836 35.072 153.064 32.32 145.152H26.644V193.484H12.196V70.6759ZM123.449 106.624H175.221C173.501 94.7559 166.277 81.5118 149.249 81.5118C134.457 81.5118 125.685 91.1438 123.449 106.624ZM190.185 114.02V119.524H123.105C124.137 137.412 133.253 148.764 149.249 148.764C159.741 148.764 171.093 143.088 173.501 131.392H188.465C185.197 150.484 167.825 161.664 149.249 161.664C124.309 161.664 108.313 143.604 108.313 115.052C108.313 86.6718 124.309 68.6118 149.249 68.6118C173.329 68.6118 190.185 85.9838 190.185 114.02ZM256.4 70.6759V83.5758H221.656V159.6H207.036V70.6759H221.656V80.3078H227.16C232.492 71.3639 234.728 70.6759 256.4 70.6759ZM329.9 127.092H344.864C342.112 147.904 324.912 161.664 304.788 161.664C279.848 161.664 263.852 143.604 263.852 115.224C263.852 83.9198 282.6 68.6118 304.788 68.6118C324.396 68.6118 341.08 76.8678 344.004 99.3998H328.868C326.632 88.2198 318.548 81.5118 304.788 81.5118C288.792 81.5118 278.3 94.7559 278.3 115.224C278.3 135.52 287.588 148.764 304.788 148.764C320.268 148.764 328.524 137.928 329.9 127.092ZM371.539 106.624H423.311C421.591 94.7559 414.367 81.5118 397.339 81.5118C382.547 81.5118 373.775 91.1438 371.539 106.624ZM438.275 114.02V119.524H371.195C372.227 137.412 381.343 148.764 397.339 148.764C407.831 148.764 419.183 143.088 421.591 131.392H436.555C433.287 150.484 415.915 161.664 397.339 161.664C372.399 161.664 356.403 143.604 356.403 115.052C356.403 86.6718 372.399 68.6118 397.339 68.6118C421.419 68.6118 438.275 85.9838 438.275 114.02ZM528.57 101.808V159.6H514.122V100.088C514.122 92.3478 513.262 81.6839 497.094 81.6839C479.034 81.6839 476.798 92.5199 475.25 95.9599H469.574V159.6H455.126V70.8478H469.574V85.1238H475.25C479.894 73.2558 488.494 68.6118 499.846 68.6118C515.67 68.6118 528.57 76.5239 528.57 101.808ZM590.42 83.5758H568.232V138.788C568.232 143.088 568.232 146.7 578.036 146.7H590.248V159.6H570.64C557.396 159.6 553.612 149.452 553.612 141.54V83.5758H541.228V70.6759H553.612V44.0158H568.232V80.3078H573.908C575.628 76.0078 577.692 70.6759 583.712 70.6759H590.42V83.5758Z" fill="white"/>
<path d="M651.688 102.688C645 102.688 639.528 100.459 635.272 96C631.117 91.44 629.04 84.7014 629.04 75.784C629.04 66.8667 631.117 60.1787 635.272 55.72C639.528 51.16 645 48.88 651.688 48.88C658.376 48.88 663.797 51.16 667.952 55.72C672.208 60.1787 674.336 66.8667 674.336 75.784C674.336 84.7014 672.208 91.44 667.952 96C663.797 100.459 658.376 102.688 651.688 102.688ZM651.688 94.48C655.336 94.48 658.275 93.2134 660.504 90.68C662.835 88.1467 664 84.448 664 79.584V71.984C664 67.12 662.835 63.4214 660.504 60.888C658.275 58.3547 655.336 57.088 651.688 57.088C648.04 57.088 645.051 58.3547 642.72 60.888C640.491 63.4214 639.376 67.12 639.376 71.984V79.584C639.376 84.448 640.491 88.1467 642.72 90.68C645.051 93.2134 648.04 94.48 651.688 94.48ZM703.52 50.704H714.464L690.144 96.304H679.2L703.52 50.704ZM653.056 111.2H664L639.68 156.8H628.736L653.056 111.2ZM691.512 158.624C684.824 158.624 679.352 156.395 675.096 151.936C670.941 147.376 668.864 140.637 668.864 131.72C668.864 122.803 670.941 116.115 675.096 111.656C679.352 107.096 684.824 104.816 691.512 104.816C698.2 104.816 703.621 107.096 707.776 111.656C712.032 116.115 714.16 122.803 714.16 131.72C714.16 140.637 712.032 147.376 707.776 151.936C703.621 156.395 698.2 158.624 691.512 158.624ZM691.512 150.416C695.16 150.416 698.099 149.149 700.328 146.616C702.659 144.083 703.824 140.384 703.824 135.52V127.92C703.824 123.056 702.659 119.357 700.328 116.824C698.099 114.291 695.16 113.024 691.512 113.024C687.864 113.024 684.875 114.291 682.544 116.824C680.315 119.357 679.2 123.056 679.2 127.92V135.52C679.2 140.384 680.315 144.083 682.544 146.616C684.875 149.149 687.864 150.416 691.512 150.416Z" fill="black"/>
<path d="M635.272 96L633.054 98.0205L633.078 98.0463L633.102 98.0715L635.272 96ZM635.272 55.72L633.079 53.6731L633.077 53.6749L635.272 55.72ZM667.952 55.72L665.734 57.7405L665.758 57.7663L665.782 57.7915L667.952 55.72ZM667.952 96L665.759 93.9531L665.757 93.9549L667.952 96ZM660.504 90.68L658.296 88.6489L658.274 88.6733L658.252 88.6982L660.504 90.68ZM660.504 60.888L658.252 62.8699L658.274 62.8948L658.296 62.9192L660.504 60.888ZM642.72 60.888L640.512 58.8569L640.49 58.8813L640.468 58.9062L642.72 60.888ZM642.72 90.68L640.468 92.6619L640.49 92.6868L640.512 92.7112L642.72 90.68ZM703.52 50.704V47.704H701.72L700.873 49.2923L703.52 50.704ZM714.464 50.704L717.111 52.1158L719.464 47.704H714.464V50.704ZM690.144 96.304V99.304H691.944L692.791 97.7158L690.144 96.304ZM679.2 96.304L676.553 94.8923L674.2 99.304H679.2V96.304ZM653.056 111.2V108.2H651.256L650.409 109.788L653.056 111.2ZM664 111.2L666.647 112.612L669 108.2H664V111.2ZM639.68 156.8V159.8H641.48L642.327 158.212L639.68 156.8ZM628.736 156.8L626.089 155.388L623.736 159.8H628.736V156.8ZM675.096 151.936L672.878 153.957L672.902 153.982L672.926 154.007L675.096 151.936ZM675.096 111.656L672.903 109.609L672.901 109.611L675.096 111.656ZM707.776 111.656L705.558 113.677L705.582 113.702L705.606 113.727L707.776 111.656ZM707.776 151.936L705.583 149.889L705.581 149.891L707.776 151.936ZM700.328 146.616L698.12 144.585L698.098 144.609L698.076 144.634L700.328 146.616ZM700.328 116.824L698.076 118.806L698.098 118.831L698.12 118.855L700.328 116.824ZM682.544 116.824L680.336 114.793L680.314 114.817L680.292 114.842L682.544 116.824ZM682.544 146.616L680.292 148.598L680.314 148.623L680.336 148.647L682.544 146.616ZM651.688 102.688V99.688C645.742 99.688 641.081 97.7404 637.442 93.9286L635.272 96L633.102 98.0715C637.975 103.177 644.258 105.688 651.688 105.688V102.688ZM635.272 96L637.49 93.9796C634.023 90.1749 632.04 84.2833 632.04 75.784H629.04H626.04C626.04 85.1195 628.212 92.7052 633.054 98.0205L635.272 96ZM629.04 75.784H632.04C632.04 67.2785 634.026 61.4582 637.467 57.7652L635.272 55.72L633.077 53.6749C628.209 58.8993 626.04 66.4549 626.04 75.784H629.04ZM635.272 55.72L637.465 57.767C641.11 53.8623 645.764 51.88 651.688 51.88V48.88V45.88C644.236 45.88 637.946 48.4577 633.079 53.6731L635.272 55.72ZM651.688 48.88V51.88C657.611 51.88 662.2 53.8609 665.734 57.7405L667.952 55.72L670.17 53.6996C665.395 48.4592 659.141 45.88 651.688 45.88V48.88ZM667.952 55.72L665.782 57.7915C669.308 61.4854 671.336 67.2952 671.336 75.784H674.336H677.336C677.336 66.4382 675.108 58.872 670.122 53.6486L667.952 55.72ZM674.336 75.784H671.336C671.336 84.2668 669.31 90.1479 665.759 93.9531L667.952 96L670.145 98.047C675.106 92.7322 677.336 85.1359 677.336 75.784H674.336ZM667.952 96L665.757 93.9549C662.229 97.7416 657.634 99.688 651.688 99.688V102.688V105.688C659.118 105.688 665.366 103.176 670.147 98.0452L667.952 96ZM651.688 94.48V97.48C656.119 97.48 659.907 95.8993 662.756 92.6619L660.504 90.68L658.252 88.6982C656.642 90.5274 654.553 91.48 651.688 91.48V94.48ZM660.504 90.68L662.712 92.7112C665.729 89.4317 667 84.8901 667 79.584H664H661C661 84.006 659.94 86.8618 658.296 88.6489L660.504 90.68ZM664 79.584H667V71.984H664H661V79.584H664ZM664 71.984H667C667 66.678 665.729 62.1364 662.712 58.8569L660.504 60.888L658.296 62.9192C659.94 64.7063 661 67.5621 661 71.984H664ZM660.504 60.888L662.756 58.9062C659.907 55.6687 656.119 54.088 651.688 54.088V57.088V60.088C654.553 60.088 656.642 61.0407 658.252 62.8699L660.504 60.888ZM651.688 57.088V54.088C647.257 54.088 643.448 55.6658 640.512 58.8569L642.72 60.888L644.928 62.9192C646.653 61.0437 648.823 60.088 651.688 60.088V57.088ZM642.72 60.888L640.468 58.9062C637.582 62.1859 636.376 66.7077 636.376 71.984H639.376H642.376C642.376 67.5324 643.4 64.6568 644.972 62.8699L642.72 60.888ZM639.376 71.984H636.376V79.584H639.376H642.376V71.984H639.376ZM639.376 79.584H636.376C636.376 84.8604 637.582 89.3822 640.468 92.6619L642.72 90.68L644.972 88.6982C643.4 86.9113 642.376 84.0357 642.376 79.584H639.376ZM642.72 90.68L640.512 92.7112C643.448 95.9023 647.257 97.48 651.688 97.48V94.48V91.48C648.823 91.48 646.653 90.5244 644.928 88.6489L642.72 90.68ZM703.52 50.704V53.704H714.464V50.704V47.704H703.52V50.704ZM714.464 50.704L711.817 49.2923L687.497 94.8923L690.144 96.304L692.791 97.7158L717.111 52.1158L714.464 50.704ZM690.144 96.304V93.304H679.2V96.304V99.304H690.144V96.304ZM679.2 96.304L681.847 97.7158L706.167 52.1158L703.52 50.704L700.873 49.2923L676.553 94.8923L679.2 96.304ZM653.056 111.2V114.2H664V111.2V108.2H653.056V111.2ZM664 111.2L661.353 109.788L637.033 155.388L639.68 156.8L642.327 158.212L666.647 112.612L664 111.2ZM639.68 156.8V153.8H628.736V156.8V159.8H639.68V156.8ZM628.736 156.8L631.383 158.212L655.703 112.612L653.056 111.2L650.409 109.788L626.089 155.388L628.736 156.8ZM691.512 158.624V155.624C685.566 155.624 680.905 153.676 677.266 149.865L675.096 151.936L672.926 154.007C677.799 159.113 684.082 161.624 691.512 161.624V158.624ZM675.096 151.936L677.314 149.916C673.847 146.111 671.864 140.219 671.864 131.72H668.864H665.864C665.864 141.055 668.036 148.641 672.878 153.957L675.096 151.936ZM668.864 131.72H671.864C671.864 123.215 673.85 117.394 677.291 113.701L675.096 111.656L672.901 109.611C668.033 114.835 665.864 122.391 665.864 131.72H668.864ZM675.096 111.656L677.289 113.703C680.934 109.798 685.588 107.816 691.512 107.816V104.816V101.816C684.06 101.816 677.77 104.394 672.903 109.609L675.096 111.656ZM691.512 104.816V107.816C697.435 107.816 702.024 109.797 705.558 113.677L707.776 111.656L709.994 109.636C705.219 104.395 698.965 101.816 691.512 101.816V104.816ZM707.776 111.656L705.606 113.727C709.132 117.421 711.16 123.231 711.16 131.72H714.16H717.16C717.16 122.374 714.932 114.808 709.946 109.585L707.776 111.656ZM714.16 131.72H711.16C711.16 140.203 709.134 146.084 705.583 149.889L707.776 151.936L709.969 153.983C714.93 148.668 717.16 141.072 717.16 131.72H714.16ZM707.776 151.936L705.581 149.891C702.053 153.678 697.458 155.624 691.512 155.624V158.624V161.624C698.942 161.624 705.19 159.112 709.971 153.981L707.776 151.936ZM691.512 150.416V153.416C695.943 153.416 699.731 151.835 702.58 148.598L700.328 146.616L698.076 144.634C696.466 146.463 694.377 147.416 691.512 147.416V150.416ZM700.328 146.616L702.536 148.647C705.553 145.368 706.824 140.826 706.824 135.52H703.824H700.824C700.824 139.942 699.764 142.798 698.12 144.585L700.328 146.616ZM703.824 135.52H706.824V127.92H703.824H700.824V135.52H703.824ZM703.824 127.92H706.824C706.824 122.614 705.553 118.072 702.536 114.793L700.328 116.824L698.12 118.855C699.764 120.642 700.824 123.498 700.824 127.92H703.824ZM700.328 116.824L702.58 114.842C699.731 111.605 695.943 110.024 691.512 110.024V113.024V116.024C694.377 116.024 696.466 116.977 698.076 118.806L700.328 116.824ZM691.512 113.024V110.024C687.081 110.024 683.272 111.602 680.336 114.793L682.544 116.824L684.752 118.855C686.477 116.98 688.647 116.024 691.512 116.024V113.024ZM682.544 116.824L680.292 114.842C677.406 118.122 676.2 122.644 676.2 127.92H679.2H682.2C682.2 123.468 683.224 120.593 684.796 118.806L682.544 116.824ZM679.2 127.92H676.2V135.52H679.2H682.2V127.92H679.2ZM679.2 135.52H676.2C676.2 140.796 677.406 145.318 680.292 148.598L682.544 146.616L684.796 144.634C683.224 142.847 682.2 139.972 682.2 135.52H679.2ZM682.544 146.616L680.336 148.647C683.272 151.838 687.081 153.416 691.512 153.416V150.416V147.416C688.647 147.416 686.477 146.46 684.752 144.585L682.544 146.616Z" fill="black"/>
</svg>
