<svg width="290" height="75" viewBox="0 0 290 75" fill="none" xmlns="http://www.w3.org/2000/svg">
<path d="M8.072 26.18V45.444H10.91C12.63 48.97 15.21 52.668 22.176 52.668C28.712 52.668 34.99 47.508 34.99 35.726C34.99 24.116 28.712 18.956 22.176 18.956C15.21 18.956 12.63 22.654 10.91 26.18H8.072ZM0.848 13.538H8.072V20.848H10.91C12.286 16.892 17.016 12.506 23.208 12.506C34.56 12.506 42.73 20.59 42.73 35.726C42.73 51.034 34.56 59.118 23.208 59.118C17.016 59.118 12.286 54.732 10.91 50.776H8.072V74.942H0.848V13.538ZM56.4745 31.512H82.3605C81.5005 25.578 77.8885 18.956 69.3745 18.956C61.9785 18.956 57.5925 23.772 56.4745 31.512ZM89.8425 35.21V37.962H56.3025C56.8185 46.906 61.3765 52.582 69.3745 52.582C74.6205 52.582 80.2965 49.744 81.5005 43.896H88.9825C87.3485 53.442 78.6625 59.032 69.3745 59.032C56.9045 59.032 48.9065 50.002 48.9065 35.726C48.9065 21.536 56.9045 12.506 69.3745 12.506C81.4145 12.506 89.8425 21.192 89.8425 35.21ZM122.95 13.538V19.988H105.578V58H98.2679V13.538H105.578V18.354H108.33C110.996 13.882 112.114 13.538 122.95 13.538ZM159.7 41.746H167.182C165.806 52.152 157.206 59.032 147.144 59.032C134.674 59.032 126.676 50.002 126.676 35.812C126.676 20.16 136.05 12.506 147.144 12.506C156.948 12.506 165.29 16.634 166.752 27.9H159.184C158.066 22.31 154.024 18.956 147.144 18.956C139.146 18.956 133.9 25.578 133.9 35.812C133.9 45.96 138.544 52.582 147.144 52.582C154.884 52.582 159.012 47.164 159.7 41.746ZM180.519 31.512H206.405C205.545 25.578 201.933 18.956 193.419 18.956C186.023 18.956 181.637 23.772 180.519 31.512ZM213.887 35.21V37.962H180.347C180.863 46.906 185.421 52.582 193.419 52.582C198.665 52.582 204.341 49.744 205.545 43.896H213.027C211.393 53.442 202.707 59.032 193.419 59.032C180.949 59.032 172.951 50.002 172.951 35.726C172.951 21.536 180.949 12.506 193.419 12.506C205.459 12.506 213.887 21.192 213.887 35.21ZM259.035 29.104V58H251.811V28.244C251.811 24.374 251.381 19.042 243.297 19.042C234.267 19.042 233.149 24.46 232.375 26.18H229.537V58H222.313V13.624H229.537V20.762H232.375C234.697 14.828 238.997 12.506 244.673 12.506C252.585 12.506 259.035 16.462 259.035 29.104ZM289.96 19.988H278.866V47.594C278.866 49.744 278.866 51.55 283.768 51.55H289.874V58H280.07C273.448 58 271.556 52.926 271.556 48.97V19.988H265.364V13.538H271.556V0.207996H278.866V18.354H281.704C282.564 16.204 283.596 13.538 286.606 13.538H289.96V19.988Z" fill="#EF6300"/>
</svg>
