<svg width="181" height="218" viewBox="0 0 181 218" fill="none" xmlns="http://www.w3.org/2000/svg">
<path d="M53.165 106.54C40.625 106.54 30.365 102.36 22.385 94C14.595 85.45 10.7 72.815 10.7 56.095C10.7 39.375 14.595 26.835 22.385 18.475C30.365 9.92499 40.625 5.64999 53.165 5.64999C65.705 5.64999 75.87 9.92499 83.66 18.475C91.64 26.835 95.63 39.375 95.63 56.095C95.63 72.815 91.64 85.45 83.66 94C75.87 102.36 65.705 106.54 53.165 106.54ZM53.165 91.15C60.005 91.15 65.515 88.775 69.695 84.025C74.065 79.275 76.25 72.34 76.25 63.22V48.97C76.25 39.85 74.065 32.915 69.695 28.165C65.515 23.415 60.005 21.04 53.165 21.04C46.325 21.04 40.72 23.415 36.35 28.165C32.17 32.915 30.08 39.85 30.08 48.97V63.22C30.08 72.34 32.17 79.275 36.35 84.025C40.72 88.775 46.325 91.15 53.165 91.15ZM150.35 9.07H170.87L125.27 94.57H104.75L150.35 9.07ZM55.73 122.5H76.25L30.65 208H10.13L55.73 122.5ZM127.835 211.42C115.295 211.42 105.035 207.24 97.055 198.88C89.265 190.33 85.37 177.695 85.37 160.975C85.37 144.255 89.265 131.715 97.055 123.355C105.035 114.805 115.295 110.53 127.835 110.53C140.375 110.53 150.54 114.805 158.33 123.355C166.31 131.715 170.3 144.255 170.3 160.975C170.3 177.695 166.31 190.33 158.33 198.88C150.54 207.24 140.375 211.42 127.835 211.42ZM127.835 196.03C134.675 196.03 140.185 193.655 144.365 188.905C148.735 184.155 150.92 177.22 150.92 168.1V153.85C150.92 144.73 148.735 137.795 144.365 133.045C140.185 128.295 134.675 125.92 127.835 125.92C120.995 125.92 115.39 128.295 111.02 133.045C106.84 137.795 104.75 144.73 104.75 153.85V168.1C104.75 177.22 106.84 184.155 111.02 188.905C115.39 193.655 120.995 196.03 127.835 196.03Z" fill="#EF6300"/>
<path d="M22.385 94L18.227 97.7884L18.271 97.8367L18.3161 97.8839L22.385 94ZM22.385 18.475L18.2728 14.637L18.2697 14.6403L22.385 18.475ZM83.66 18.475L79.502 22.2634L79.546 22.3117L79.5911 22.3589L83.66 18.475ZM83.66 94L79.5478 90.162L79.5447 90.1653L83.66 94ZM69.695 84.025L65.5554 80.2166L65.5133 80.2623L65.4722 80.309L69.695 84.025ZM69.695 28.165L65.4722 31.881L65.5133 31.9277L65.5554 31.9734L69.695 28.165ZM36.35 28.165L32.2104 24.3565L32.1683 24.4023L32.1272 24.449L36.35 28.165ZM36.35 84.025L32.1272 87.741L32.1683 87.7877L32.2104 87.8334L36.35 84.025ZM150.35 9.07V3.445H146.975L145.387 6.42294L150.35 9.07ZM170.87 9.07L175.833 11.7171L180.245 3.445H170.87V9.07ZM125.27 94.57V100.195H128.645L130.233 97.2171L125.27 94.57ZM104.75 94.57L99.7868 91.9229L95.375 100.195H104.75V94.57ZM55.73 122.5V116.875H52.355L50.7668 119.853L55.73 122.5ZM76.25 122.5L81.2132 125.147L85.625 116.875H76.25V122.5ZM30.65 208V213.625H34.025L35.6132 210.647L30.65 208ZM10.13 208L5.16676 205.353L0.755001 213.625H10.13V208ZM97.055 198.88L92.897 202.668L92.941 202.717L92.9861 202.764L97.055 198.88ZM97.055 123.355L92.9428 119.517L92.9397 119.52L97.055 123.355ZM158.33 123.355L154.172 127.143L154.216 127.192L154.261 127.239L158.33 123.355ZM158.33 198.88L154.218 195.042L154.215 195.045L158.33 198.88ZM144.365 188.905L140.225 185.097L140.183 185.142L140.142 185.189L144.365 188.905ZM144.365 133.045L140.142 136.761L140.183 136.808L140.225 136.853L144.365 133.045ZM111.02 133.045L106.88 129.237L106.838 129.282L106.797 129.329L111.02 133.045ZM111.02 188.905L106.797 192.621L106.838 192.668L106.88 192.713L111.02 188.905ZM53.165 106.54V100.915C42.017 100.915 33.2762 97.2633 26.4539 90.1161L22.385 94L18.3161 97.8839C27.4538 107.457 39.233 112.165 53.165 112.165V106.54ZM22.385 94L26.543 90.2116C20.0434 83.0779 16.325 72.031 16.325 56.095H10.7H5.075C5.075 73.599 9.14664 87.8221 18.227 97.7884L22.385 94ZM10.7 56.095H16.325C16.325 40.1472 20.0481 29.234 26.5003 22.3097L22.385 18.475L18.2697 14.6403C9.14186 24.436 5.075 38.6028 5.075 56.095H10.7ZM22.385 18.475L26.4972 22.313C33.3303 14.9918 42.0582 11.275 53.165 11.275V5.64999V0.0249863C39.1918 0.0249863 27.3997 4.85818 18.2728 14.637L22.385 18.475ZM53.165 5.64999V11.275C64.2715 11.275 72.8744 14.9892 79.502 22.2634L83.66 18.475L87.818 14.6866C78.8656 4.86082 67.1385 0.0249863 53.165 0.0249863V5.64999ZM83.66 18.475L79.5911 22.3589C86.2024 29.285 90.005 40.1784 90.005 56.095H95.63H101.255C101.255 38.5716 97.0776 24.385 87.7289 14.5911L83.66 18.475ZM95.63 56.095H90.005C90.005 72.0002 86.207 83.0271 79.5478 90.162L83.66 94L87.7722 97.838C97.073 87.8729 101.255 73.6297 101.255 56.095H95.63ZM83.66 94L79.5447 90.1653C72.9287 97.2654 64.3133 100.915 53.165 100.915V106.54V112.165C67.0967 112.165 78.8113 107.455 87.7753 97.8347L83.66 94ZM53.165 91.15V96.775C61.4738 96.775 68.576 93.8112 73.9178 87.741L69.695 84.025L65.4722 80.309C62.454 83.7388 58.5362 85.525 53.165 85.525V91.15ZM69.695 84.025L73.8346 87.8334C79.4918 81.6843 81.875 73.1688 81.875 63.22H76.25H70.625C70.625 71.5112 68.6382 76.8657 65.5554 80.2166L69.695 84.025ZM76.25 63.22H81.875V48.97H76.25H70.625V63.22H76.25ZM76.25 48.97H81.875C81.875 39.0212 79.4918 30.5057 73.8346 24.3566L69.695 28.165L65.5554 31.9734C68.6382 35.3243 70.625 40.6788 70.625 48.97H76.25ZM69.695 28.165L73.9178 24.449C68.576 18.3788 61.4738 15.415 53.165 15.415V21.04V26.665C58.5362 26.665 62.454 28.4512 65.4722 31.881L69.695 28.165ZM53.165 21.04V15.415C44.8576 15.415 37.7151 18.3732 32.2104 24.3565L36.35 28.165L40.4896 31.9734C43.7249 28.4568 47.7924 26.665 53.165 26.665V21.04ZM36.35 28.165L32.1272 24.449C26.7156 30.5985 24.455 39.0769 24.455 48.97H30.08H35.705C35.705 40.6231 37.6244 35.2315 40.5728 31.881L36.35 28.165ZM30.08 48.97H24.455V63.22H30.08H35.705V48.97H30.08ZM30.08 63.22H24.455C24.455 73.1131 26.7156 81.5915 32.1272 87.741L36.35 84.025L40.5728 80.309C37.6244 76.9585 35.705 71.5669 35.705 63.22H30.08ZM36.35 84.025L32.2104 87.8334C37.7151 93.8168 44.8576 96.775 53.165 96.775V91.15V85.525C47.7924 85.525 43.7249 83.7332 40.4896 80.2166L36.35 84.025ZM150.35 9.07V14.695H170.87V9.07V3.445H150.35V9.07ZM170.87 9.07L165.907 6.42294L120.307 91.9229L125.27 94.57L130.233 97.2171L175.833 11.7171L170.87 9.07ZM125.27 94.57V88.945H104.75V94.57V100.195H125.27V94.57ZM104.75 94.57L109.713 97.2171L155.313 11.7171L150.35 9.07L145.387 6.42294L99.7868 91.9229L104.75 94.57ZM55.73 122.5V128.125H76.25V122.5V116.875H55.73V122.5ZM76.25 122.5L71.2868 119.853L25.6868 205.353L30.65 208L35.6132 210.647L81.2132 125.147L76.25 122.5ZM30.65 208V202.375H10.13V208V213.625H30.65V208ZM10.13 208L15.0932 210.647L60.6932 125.147L55.73 122.5L50.7668 119.853L5.16676 205.353L10.13 208ZM127.835 211.42V205.795C116.687 205.795 107.946 202.143 101.124 194.996L97.055 198.88L92.9861 202.764C102.124 212.337 113.903 217.045 127.835 217.045V211.42ZM97.055 198.88L101.213 195.092C94.7134 187.958 90.995 176.911 90.995 160.975H85.37H79.745C79.745 178.479 83.8166 192.702 92.897 202.668L97.055 198.88ZM85.37 160.975H90.995C90.995 145.027 94.7181 134.114 101.17 127.19L97.055 123.355L92.9397 119.52C83.8119 129.316 79.745 143.483 79.745 160.975H85.37ZM97.055 123.355L101.167 127.193C108 119.872 116.728 116.155 127.835 116.155V110.53V104.905C113.862 104.905 102.07 109.738 92.9428 119.517L97.055 123.355ZM127.835 110.53V116.155C138.942 116.155 147.544 119.869 154.172 127.143L158.33 123.355L162.488 119.567C153.536 109.741 141.808 104.905 127.835 104.905V110.53ZM158.33 123.355L154.261 127.239C160.872 134.165 164.675 145.058 164.675 160.975H170.3H175.925C175.925 143.452 171.748 129.265 162.399 119.471L158.33 123.355ZM170.3 160.975H164.675C164.675 176.88 160.877 187.907 154.218 195.042L158.33 198.88L162.442 202.718C171.743 192.753 175.925 178.51 175.925 160.975H170.3ZM158.33 198.88L154.215 195.045C147.599 202.145 138.983 205.795 127.835 205.795V211.42V217.045C141.767 217.045 153.481 212.335 162.445 202.715L158.33 198.88ZM127.835 196.03V201.655C136.144 201.655 143.246 198.691 148.588 192.621L144.365 188.905L140.142 185.189C137.124 188.619 133.206 190.405 127.835 190.405V196.03ZM144.365 188.905L148.505 192.713C154.162 186.564 156.545 178.049 156.545 168.1H150.92H145.295C145.295 176.391 143.308 181.746 140.225 185.097L144.365 188.905ZM150.92 168.1H156.545V153.85H150.92H145.295V168.1H150.92ZM150.92 153.85H156.545C156.545 143.901 154.162 135.386 148.505 129.237L144.365 133.045L140.225 136.853C143.308 140.204 145.295 145.559 145.295 153.85H150.92ZM144.365 133.045L148.588 129.329C143.246 123.259 136.144 120.295 127.835 120.295V125.92V131.545C133.206 131.545 137.124 133.331 140.142 136.761L144.365 133.045ZM127.835 125.92V120.295C119.528 120.295 112.385 123.253 106.88 129.237L111.02 133.045L115.16 136.853C118.395 133.337 122.462 131.545 127.835 131.545V125.92ZM111.02 133.045L106.797 129.329C101.386 135.479 99.125 143.957 99.125 153.85H104.75H110.375C110.375 145.503 112.294 140.111 115.243 136.761L111.02 133.045ZM104.75 153.85H99.125V168.1H104.75H110.375V153.85H104.75ZM104.75 168.1H99.125C99.125 177.993 101.386 186.471 106.797 192.621L111.02 188.905L115.243 185.189C112.294 181.839 110.375 176.447 110.375 168.1H104.75ZM111.02 188.905L106.88 192.713C112.385 198.697 119.528 201.655 127.835 201.655V196.03V190.405C122.462 190.405 118.395 188.613 115.16 185.097L111.02 188.905Z" fill="#EF6300"/>
</svg>
