<svg width="1018" height="82" viewBox="210 209 1018 82" fill="none" xmlns="http://www.w3.org/2000/svg">
<path d="M388.975 260.8L389.175 277.5C387.641 280.1 385.608 282.467 383.075 284.6C380.541 286.667 377.441 288.333 373.775 289.6C370.175 290.8 365.941 291.4 361.075 291.4C353.341 291.333 346.541 289.833 340.675 286.9C334.808 283.967 330.241 279.8 326.975 274.4C323.775 268.933 322.175 262.433 322.175 254.9C322.175 247.5 323.775 241.1 326.975 235.7C330.175 230.233 334.708 226.033 340.575 223.1C346.441 220.1 353.408 218.6 361.475 218.6C366.675 218.6 371.341 219.2 375.475 220.4C379.608 221.533 383.108 222.9 385.975 224.5L386.775 240.6H385.875C384.208 234.267 381.241 229.667 376.975 226.8C372.775 223.867 367.841 222.4 362.175 222.4C356.708 222.4 351.975 223.733 347.975 226.4C344.041 229 340.975 232.733 338.775 237.6C336.641 242.4 335.575 248.1 335.575 254.7C335.575 261.3 336.608 267.067 338.675 272C340.808 276.867 343.775 280.667 347.575 283.4C351.441 286.067 355.941 287.467 361.075 287.6C366.075 287.6 370.408 286.767 374.075 285.1C377.808 283.367 380.841 280.533 383.175 276.6C385.575 272.667 387.241 267.4 388.175 260.8H388.975ZM458.318 218.6C465.985 218.6 472.685 220.1 478.418 223.1C484.218 226.033 488.685 230.233 491.818 235.7C494.952 241.167 496.518 247.6 496.518 255C496.518 262.4 494.952 268.833 491.818 274.3C488.685 279.767 484.218 284 478.418 287C472.685 289.933 465.985 291.4 458.318 291.4C450.585 291.4 443.852 289.933 438.118 287C432.385 284 427.952 279.767 424.818 274.3C421.685 268.833 420.118 262.4 420.118 255C420.118 247.6 421.685 241.167 424.818 235.7C427.952 230.233 432.385 226.033 438.118 223.1C443.852 220.1 450.585 218.6 458.318 218.6ZM458.318 287.6C463.318 287.6 467.652 286.267 471.318 283.6C475.052 280.933 477.918 277.167 479.918 272.3C481.985 267.433 483.018 261.667 483.018 255C483.018 248.333 481.985 242.567 479.918 237.7C477.918 232.833 475.052 229.067 471.318 226.4C467.652 223.733 463.318 222.4 458.318 222.4C453.318 222.4 448.952 223.733 445.218 226.4C441.552 229.067 438.685 232.833 436.618 237.7C434.618 242.567 433.618 248.333 433.618 255C433.618 261.667 434.618 267.433 436.618 272.3C438.685 277.167 441.552 280.933 445.218 283.6C448.952 286.267 453.318 287.6 458.318 287.6ZM596.668 218.6L597.468 228.1L569.268 281C569.268 281 568.968 281.6 568.368 282.8C567.768 283.933 567.168 285.333 566.568 287C565.968 288.667 565.634 290.267 565.568 291.8H564.568L561.468 283.9L596.668 218.6ZM530.968 282.7V290H519.868V289C519.934 289 520.201 289 520.668 289C521.201 289 521.468 289 521.468 289C523.268 289 524.868 288.467 526.268 287.4C527.668 286.267 528.501 284.7 528.768 282.7H530.968ZM534.868 284.3C534.868 284.367 534.868 284.433 534.868 284.5C534.868 284.567 534.868 284.667 534.868 284.8C534.868 285.867 535.234 286.867 535.968 287.8C536.768 288.667 537.701 289.1 538.768 289.1H540.268V290H534.168V284.3H534.868ZM536.768 218.6H537.768L540.768 227.3L534.268 290H527.868L536.768 218.6ZM537.768 218.6L569.168 275.2L564.568 291.8L535.368 238.1L537.768 218.6ZM597.568 218.6L606.768 290H593.468L588.268 239.2L596.668 218.6H597.568ZM603.668 282.7H605.868C606.201 284.7 607.034 286.267 608.368 287.4C609.768 288.467 611.368 289 613.168 289C613.168 289 613.401 289 613.868 289C614.401 289 614.701 289 614.768 289V290H603.668V282.7ZM592.868 284.3H593.568V290H587.468V289.1H588.968C590.101 289.1 591.034 288.667 591.768 287.8C592.501 286.867 592.868 285.867 592.868 284.8C592.868 284.667 592.868 284.567 592.868 284.5C592.868 284.433 592.868 284.367 592.868 284.3ZM650.296 220H665.296C670.096 220 674.296 220.633 677.896 221.9C681.563 223.1 684.396 224.967 686.396 227.5C688.463 229.967 689.496 233.133 689.496 237C689.496 239.933 688.896 242.467 687.696 244.6C686.563 246.733 685.096 248.4 683.296 249.6C681.563 250.8 679.663 251.567 677.596 251.9C681.063 252.3 684.096 253.333 686.696 255C689.363 256.667 691.43 258.833 692.896 261.5C694.43 264.167 695.196 267.233 695.196 270.7C695.196 274.767 694.096 278.267 691.896 281.2C689.763 284.067 686.696 286.267 682.697 287.8C678.697 289.267 673.996 290 668.596 290H658.396C658.396 290 658.396 289.667 658.396 289C658.463 288.267 658.496 287.567 658.496 286.9C658.496 286.167 658.496 285.8 658.496 285.8H665.596C668.73 285.8 671.463 285.233 673.796 284.1C676.13 282.9 677.93 281.1 679.196 278.7C680.53 276.3 681.196 273.3 681.196 269.7C681.196 266.5 680.663 263.833 679.596 261.7C678.53 259.5 677.096 257.767 675.296 256.5C673.563 255.233 671.596 254.333 669.396 253.8C667.196 253.267 664.963 253 662.696 253V252.1C664.23 252.1 665.796 251.9 667.396 251.5C668.996 251.033 670.463 250.3 671.796 249.3C673.13 248.233 674.196 246.8 674.996 245C675.863 243.133 676.296 240.8 676.296 238C676.296 234.8 675.763 232.167 674.696 230.1C673.63 227.967 672.096 226.4 670.096 225.4C668.096 224.4 665.696 223.9 662.896 223.9H651.296C651.296 223.833 651.196 223.5 650.996 222.9C650.863 222.3 650.696 221.667 650.496 221C650.363 220.333 650.296 220 650.296 220ZM659.296 220V290H647.096V220H659.296ZM647.396 282.7V290H639.396V289C639.53 289 639.763 289 640.096 289C640.43 289 640.63 289 640.696 289C642.43 289 643.896 288.4 645.096 287.2C646.363 285.933 647.03 284.433 647.096 282.7H647.396ZM647.396 227.3H647.096C647.03 225.567 646.363 224.1 645.096 222.9C643.896 221.633 642.43 221 640.696 221C640.63 221 640.43 221 640.096 221C639.763 221 639.53 221 639.396 221V220H647.396V227.3ZM743.164 220V290H730.964V220H743.164ZM731.264 282.7V290H723.264V289C723.264 289 723.464 289 723.864 289C724.33 289 724.564 289 724.564 289C726.297 289 727.764 288.4 728.964 287.2C730.23 285.933 730.897 284.433 730.964 282.7H731.264ZM731.264 227.3H730.964C730.897 225.567 730.23 224.1 728.964 222.9C727.764 221.633 726.297 221 724.564 221C724.564 221 724.33 221 723.864 221C723.464 221 723.264 221 723.264 221V220H731.264V227.3ZM742.864 282.7H743.164C743.23 284.433 743.864 285.933 745.064 287.2C746.33 288.4 747.83 289 749.564 289C749.564 289 749.764 289 750.164 289C750.564 289 750.797 289 750.864 289V290H742.864V282.7ZM742.864 227.3V220H750.864V221C750.797 221 750.564 221 750.164 221C749.764 221 749.564 221 749.564 221C747.83 221 746.33 221.633 745.064 222.9C743.864 224.1 743.23 225.567 743.164 227.3H742.864ZM786.875 218.5L848.775 279.7L849.875 291.4L787.975 230.3L786.875 218.5ZM787.275 282.9V290H778.975V289C778.975 289 779.275 289 779.875 289C780.475 289 780.809 289 780.875 289C782.542 289 783.975 288.4 785.175 287.2C786.375 286 786.975 284.567 786.975 282.9H787.275ZM798.075 282.9C798.075 284.567 798.675 286 799.875 287.2C801.075 288.4 802.509 289 804.175 289C804.242 289 804.575 289 805.175 289C805.775 289 806.075 289 806.075 289V290H797.775V282.9H798.075ZM786.875 218.5L797.975 230.6L798.075 290H786.975V231C786.975 227.4 786.775 224.433 786.375 222.1C786.042 219.7 785.875 218.5 785.875 218.5H786.875ZM849.675 220V278.6C849.675 281 849.775 283.167 849.975 285.1C850.175 287.033 850.342 288.567 850.475 289.7C850.675 290.833 850.775 291.4 850.775 291.4H849.875L838.775 278.9V220H849.675ZM857.675 220V221C857.675 221 857.375 221 856.775 221C856.175 221 855.875 221 855.875 221C854.209 221 852.775 221.6 851.575 222.8C850.375 223.933 849.742 225.367 849.675 227.1H849.375V220H857.675ZM830.675 220H838.975V227.1H838.775C838.709 225.367 838.075 223.933 836.875 222.8C835.742 221.6 834.309 221 832.575 221C832.575 221 832.275 221 831.675 221C831.075 221 830.742 221 830.675 221V220ZM915.939 218.2L947.539 289.4H932.739L911.239 234.2L915.939 218.2ZM894.439 282.7C893.905 284.033 893.805 285.167 894.139 286.1C894.472 287.033 895.039 287.767 895.839 288.3C896.639 288.767 897.439 289 898.239 289H899.139V290H878.139V289C878.139 289 878.305 289 878.639 289C878.905 289 879.039 289 879.039 289C880.572 289 882.139 288.533 883.739 287.6C885.405 286.6 886.772 284.967 887.839 282.7H894.439ZM915.939 218.2L916.439 228.7L891.539 289.7H884.739L910.539 230.4C910.672 230.133 910.939 229.5 911.339 228.5C911.805 227.433 912.305 226.233 912.839 224.9C913.439 223.567 913.939 222.3 914.339 221.1C914.739 219.833 914.972 218.867 915.039 218.2H915.939ZM927.639 265V268.8H897.539V265H927.639ZM930.139 282.7H944.539C945.605 284.967 946.939 286.6 948.539 287.6C950.205 288.533 951.805 289 953.339 289C953.339 289 953.472 289 953.739 289C954.005 289 954.139 289 954.139 289V290H925.439V289H926.339C927.605 289 928.739 288.467 929.739 287.4C930.739 286.267 930.872 284.7 930.139 282.7ZM1002.32 220.3V290H990.12V220.3H1002.32ZM1027.12 219.9V223.7H965.22V219.9H1027.12ZM1027.12 223.4V233.9L1026.12 233.8V232.5C1026.12 229.9 1025.32 227.8 1023.72 226.2C1022.12 224.6 1020.02 223.767 1017.42 223.7V223.4H1027.12ZM1027.12 218.1V221L1014.92 219.9C1016.39 219.9 1017.92 219.8 1019.52 219.6C1021.19 219.4 1022.72 219.167 1024.12 218.9C1025.52 218.633 1026.52 218.367 1027.12 218.1ZM990.42 282.7V290H982.42V289C982.42 289 982.62 289 983.02 289C983.487 289 983.72 289 983.72 289C985.453 289 986.92 288.4 988.12 287.2C989.387 285.933 990.053 284.433 990.12 282.7H990.42ZM1002.02 282.7H1002.32C1002.39 284.433 1003.02 285.933 1004.22 287.2C1005.49 288.4 1006.99 289 1008.72 289C1008.72 289 1008.92 289 1009.32 289C1009.79 289 1010.02 289 1010.02 289V290H1002.02V282.7ZM974.92 223.4V223.7C972.32 223.767 970.22 224.6 968.62 226.2C967.02 227.8 966.22 229.9 966.22 232.5V233.8L965.22 233.9V223.4H974.92ZM965.22 218.1C965.887 218.367 966.887 218.633 968.22 218.9C969.62 219.167 971.153 219.4 972.82 219.6C974.487 219.8 976.02 219.9 977.42 219.9L965.22 221V218.1ZM1090.99 218.6C1098.66 218.6 1105.36 220.1 1111.09 223.1C1116.89 226.033 1121.36 230.233 1124.49 235.7C1127.63 241.167 1129.19 247.6 1129.19 255C1129.19 262.4 1127.63 268.833 1124.49 274.3C1121.36 279.767 1116.89 284 1111.09 287C1105.36 289.933 1098.66 291.4 1090.99 291.4C1083.26 291.4 1076.53 289.933 1070.79 287C1065.06 284 1060.63 279.767 1057.49 274.3C1054.36 268.833 1052.79 262.4 1052.79 255C1052.79 247.6 1054.36 241.167 1057.49 235.7C1060.63 230.233 1065.06 226.033 1070.79 223.1C1076.53 220.1 1083.26 218.6 1090.99 218.6ZM1090.99 287.6C1095.99 287.6 1100.33 286.267 1103.99 283.6C1107.73 280.933 1110.59 277.167 1112.59 272.3C1114.66 267.433 1115.69 261.667 1115.69 255C1115.69 248.333 1114.66 242.567 1112.59 237.7C1110.59 232.833 1107.73 229.067 1103.99 226.4C1100.33 223.733 1095.99 222.4 1090.99 222.4C1085.99 222.4 1081.63 223.733 1077.89 226.4C1074.23 229.067 1071.36 232.833 1069.29 237.7C1067.29 242.567 1066.29 248.333 1066.29 255C1066.29 261.667 1067.29 267.433 1069.29 272.3C1071.36 277.167 1074.23 280.933 1077.89 283.6C1081.63 286.267 1085.99 287.6 1090.99 287.6ZM1175.36 220H1188.66C1191.66 220 1194.5 220.367 1197.16 221.1C1199.9 221.833 1202.3 222.967 1204.36 224.5C1206.43 226.033 1208.03 228 1209.16 230.4C1210.36 232.733 1210.96 235.533 1210.96 238.8C1210.96 241.733 1210.33 244.633 1209.06 247.5C1207.8 250.367 1205.93 252.767 1203.46 254.7C1201 256.567 1197.96 257.633 1194.36 257.9C1196.16 258.5 1197.86 259.633 1199.46 261.3C1201.13 262.9 1202.5 264.5 1203.56 266.1C1203.63 266.167 1204.03 266.8 1204.76 268C1205.56 269.133 1206.53 270.533 1207.66 272.2C1208.8 273.867 1209.96 275.533 1211.16 277.2C1212.43 278.867 1213.53 280.267 1214.46 281.4C1215.93 283.133 1217.26 284.567 1218.46 285.7C1219.73 286.767 1221.06 287.6 1222.46 288.2C1223.86 288.733 1225.46 289 1227.26 289V290H1218.96C1215.5 290 1212.4 289.633 1209.66 288.9C1207 288.167 1204.66 287.067 1202.66 285.6C1200.66 284.133 1198.93 282.3 1197.46 280.1C1197.06 279.5 1196.5 278.6 1195.76 277.4C1195.03 276.133 1194.23 274.733 1193.36 273.2C1192.5 271.667 1191.63 270.2 1190.76 268.8C1189.96 267.333 1189.26 266.033 1188.66 264.9C1188.13 263.767 1187.76 262.967 1187.56 262.5C1186.5 260.567 1185.33 259 1184.06 257.8C1182.8 256.6 1181.43 255.933 1179.96 255.8V254.8C1180.1 254.8 1180.53 254.833 1181.26 254.9C1182 254.9 1182.83 254.867 1183.76 254.8C1185.56 254.733 1187.36 254.4 1189.16 253.8C1191.03 253.2 1192.7 252.1 1194.16 250.5C1195.63 248.833 1196.7 246.533 1197.36 243.6C1197.5 243 1197.63 242.233 1197.76 241.3C1197.9 240.367 1197.93 239.4 1197.86 238.4C1197.66 233.733 1196.46 230.2 1194.26 227.8C1192.06 225.4 1189.26 224.133 1185.86 224C1184.6 223.933 1183.26 223.933 1181.86 224C1180.46 224 1179.23 224 1178.16 224C1177.16 224 1176.56 224 1176.36 224C1176.36 223.933 1176.26 223.567 1176.06 222.9C1175.93 222.233 1175.76 221.6 1175.56 221C1175.43 220.333 1175.36 220 1175.36 220ZM1176.66 220V290H1164.46V220H1176.66ZM1164.76 282.7V290H1156.76V289C1156.83 289 1157.03 289 1157.36 289C1157.76 289 1158 289 1158.06 289C1159.8 289 1161.26 288.4 1162.46 287.2C1163.73 285.933 1164.4 284.433 1164.46 282.7H1164.76ZM1164.76 227.3H1164.46C1164.4 225.567 1163.73 224.1 1162.46 222.9C1161.26 221.633 1159.8 221 1158.06 221C1158 221 1157.76 221 1157.36 221C1157.03 221 1156.83 221 1156.76 221V220H1164.76V227.3ZM1176.36 282.7H1176.66C1176.66 284.433 1177.3 285.933 1178.56 287.2C1179.83 288.4 1181.33 289 1183.06 289C1183.13 289 1183.33 289 1183.66 289C1184.06 289 1184.26 289 1184.26 289V290H1176.36V282.7Z" fill="white"/>
<path d="M281.229 212.101V209.581H279.059V212.101H281.229Z" fill="white" stroke="white" stroke-width="1.33333"/>
<mask id="mask0_28_15" style="mask-type:luminance" maskUnits="userSpaceOnUse" x="0" y="0" width="493" height="500">
<path d="M492.333 499.333V0.666992H0.666992V499.333H492.333Z" fill="white" stroke="white" stroke-width="1.33333"/>
</mask>
<g mask="url(#mask0_28_15)">
<path d="M251.768 290.418C252.021 290.406 252.384 290.249 252.621 289.989L252.663 289.943L252.713 289.905L272.946 274.629L272.95 274.627C273.092 274.522 273.187 274.336 273.218 273.966C273.233 273.785 273.23 273.588 273.222 273.371C273.214 273.171 273.198 272.924 273.198 272.714L273.214 222.396C273.206 221.328 274.004 220.344 275.125 220.344H280.906V220.17H248.917V220.344H249.53C250.775 220.344 251.679 221.433 251.679 222.64V290.414C251.699 290.417 251.728 290.42 251.768 290.418Z" fill="white" stroke="white" stroke-width="1.33333"/>
</g>
<mask id="mask1_28_15" style="mask-type:luminance" maskUnits="userSpaceOnUse" x="0" y="0" width="493" height="500">
<path d="M492.333 499.333V0.666992H0.666992V499.333H492.333Z" fill="white" stroke="white" stroke-width="1.33333"/>
</mask>
<g mask="url(#mask1_28_15)">
<path d="M220.271 271.85C220.524 271.837 220.887 271.681 221.125 271.42L221.164 271.376L221.21 271.341L240.987 256.066L240.997 256.059C241.138 255.953 241.233 255.768 241.264 255.398C241.279 255.216 241.277 255.019 241.268 254.803C241.26 254.603 241.245 254.356 241.245 254.146L241.261 222.396C241.253 221.328 242.051 220.344 243.171 220.344H244.048V220.17H211.771V220.344H217.41C218.999 220.344 220.182 221.74 220.182 223.325V271.846C220.203 271.849 220.232 271.852 220.271 271.85Z" fill="white" stroke="white" stroke-width="1.33333"/>
</g>
</svg>
