<svg width="138" height="160" viewBox="130 120 138 160" fill="none" xmlns="http://www.w3.org/2000/svg">
<path d="M264.493 128.939V124.216H260.422V128.939H264.493Z" fill="white" stroke="white" stroke-width="2.5"/>
<mask id="mask0_28_2" style="mask-type:luminance" maskUnits="userSpaceOnUse" x="0" y="0" width="400" height="400">
<path d="M399 399V1H1V399H399Z" fill="white" stroke="white" stroke-width="2"/>
</mask>
<g mask="url(#mask0_28_2)">
<path d="M209.253 275.784C209.729 275.761 210.408 275.467 210.853 274.978L210.932 274.892L211.025 274.822L248.962 246.18L248.969 246.176C249.235 245.978 249.413 245.631 249.471 244.936C249.5 244.597 249.494 244.227 249.478 243.821C249.463 243.446 249.435 242.983 249.435 242.589L249.464 148.243H249.465C249.45 146.24 250.946 144.395 253.048 144.395H263.887V144.069H203.907V144.395H205.057C207.39 144.395 209.084 146.437 209.084 148.7V275.778C209.123 275.783 209.179 275.788 209.253 275.784Z" fill="white" stroke="white" stroke-width="2.5"/>
</g>
<mask id="mask1_28_2" style="mask-type:luminance" maskUnits="userSpaceOnUse" x="0" y="0" width="400" height="400">
<path d="M399 399V1H1V399H399Z" fill="white" stroke="white" stroke-width="2"/>
</mask>
<g mask="url(#mask1_28_2)">
<path d="M150.196 240.968C150.671 240.945 151.35 240.652 151.796 240.162L151.87 240.081L151.957 240.014L189.039 211.373L189.056 211.359C189.322 211.162 189.5 210.815 189.558 210.12C189.587 209.781 189.582 209.411 189.565 209.005C189.55 208.63 189.521 208.167 189.521 207.773L189.552 148.242C189.536 146.239 191.033 144.396 193.135 144.396H194.778V144.069H134.258V144.396H144.831C147.81 144.396 150.028 147.012 150.028 149.984V240.962C150.067 240.967 150.122 240.971 150.196 240.968Z" fill="white" stroke="white" stroke-width="2.5"/>
</g>
</svg>
