<svg width="235" height="295" viewBox="0 0 235 295" fill="none" xmlns="http://www.w3.org/2000/svg">
<path d="M65.1781 144.6C47.5781 144.6 33.1781 138.733 21.9781 127C11.0448 115 5.57813 97.2667 5.57813 73.8C5.57813 50.3333 11.0448 32.7333 21.9781 21C33.1781 8.99999 47.5781 2.99998 65.1781 2.99998C82.7781 2.99998 97.0448 8.99999 107.978 21C119.178 32.7333 124.778 50.3333 124.778 73.8C124.778 97.2667 119.178 115 107.978 127C97.0448 138.733 82.7781 144.6 65.1781 144.6ZM65.1781 123C74.7781 123 82.5115 119.667 88.3781 113C94.5115 106.333 97.5781 96.6 97.5781 83.8V63.8C97.5781 51 94.5115 41.2667 88.3781 34.6C82.5115 27.9333 74.7781 24.6 65.1781 24.6C55.5781 24.6 47.7115 27.9333 41.5781 34.6C35.7115 41.2667 32.7781 51 32.7781 63.8V83.8C32.7781 96.6 35.7115 106.333 41.5781 113C47.7115 119.667 55.5781 123 65.1781 123ZM201.578 7.79999H230.378L166.378 127.8H137.578L201.578 7.79999ZM68.7781 167H97.5781L33.5781 287H4.77813L68.7781 167ZM169.978 291.8C152.378 291.8 137.978 285.933 126.778 274.2C115.845 262.2 110.378 244.467 110.378 221C110.378 197.533 115.845 179.933 126.778 168.2C137.978 156.2 152.378 150.2 169.978 150.2C187.578 150.2 201.845 156.2 212.778 168.2C223.978 179.933 229.578 197.533 229.578 221C229.578 244.467 223.978 262.2 212.778 274.2C201.845 285.933 187.578 291.8 169.978 291.8ZM169.978 270.2C179.578 270.2 187.311 266.867 193.178 260.2C199.311 253.533 202.378 243.8 202.378 231V211C202.378 198.2 199.311 188.467 193.178 181.8C187.311 175.133 179.578 171.8 169.978 171.8C160.378 171.8 152.511 175.133 146.378 181.8C140.511 188.467 137.578 198.2 137.578 211V231C137.578 243.8 140.511 253.533 146.378 260.2C152.511 266.867 160.378 270.2 169.978 270.2Z" fill="#EF6300"/>
<path d="M21.9781 127L20.1301 128.684L20.1497 128.705L20.1697 128.726L21.9781 127ZM21.9781 21L20.1505 19.2942L20.1491 19.2957L21.9781 21ZM107.978 21L106.13 22.6837L106.15 22.7052L106.17 22.7262L107.978 21ZM107.978 127L106.15 125.294L106.149 125.296L107.978 127ZM88.3781 113L86.5383 111.307L86.5196 111.328L86.5013 111.348L88.3781 113ZM88.3781 34.6L86.5014 36.2516L86.5196 36.2723L86.5383 36.2926L88.3781 34.6ZM41.5781 34.6L39.7383 32.9073L39.7196 32.9277L39.7013 32.9484L41.5781 34.6ZM41.5781 113L39.7013 114.652L39.7196 114.672L39.7383 114.693L41.5781 113ZM201.578 7.8V5.3H200.078L199.372 6.62352L201.578 7.8ZM230.378 7.8L232.584 8.97646L234.545 5.3H230.378V7.8ZM166.378 127.8V130.3H167.878L168.584 128.976L166.378 127.8ZM137.578 127.8L135.372 126.624L133.411 130.3H137.578V127.8ZM68.7781 167V164.5H67.2781L66.5722 165.824L68.7781 167ZM97.5781 167L99.784 168.176L101.745 164.5H97.5781V167ZM33.5781 287V289.5H35.0781L35.784 288.176L33.5781 287ZM4.77813 287L2.57224 285.824L0.611459 289.5H4.77813V287ZM126.778 274.2L124.93 275.884L124.95 275.905L124.97 275.926L126.778 274.2ZM126.778 168.2L124.95 166.494L124.949 166.496L126.778 168.2ZM212.778 168.2L210.93 169.884L210.95 169.905L210.97 169.926L212.778 168.2ZM212.778 274.2L210.951 272.494L210.949 272.496L212.778 274.2ZM193.178 260.2L191.338 258.507L191.32 258.528L191.301 258.548L193.178 260.2ZM193.178 181.8L191.301 183.452L191.32 183.472L191.338 183.493L193.178 181.8ZM146.378 181.8L144.538 180.107L144.52 180.128L144.501 180.148L146.378 181.8ZM146.378 260.2L144.501 261.852L144.52 261.872L144.538 261.893L146.378 260.2ZM65.1781 144.6V142.1C48.1968 142.1 34.472 136.468 23.7865 125.274L21.9781 127L20.1697 128.726C31.8843 140.999 46.9595 147.1 65.1781 147.1V144.6ZM21.9781 127L23.8261 125.316C13.4663 113.946 8.07813 96.9182 8.07813 73.8H5.57813H3.07813C3.07813 97.6151 8.6233 116.054 20.1301 128.684L21.9781 127ZM5.57813 73.8H8.07813C8.07813 50.6765 13.4684 33.7995 23.8071 22.7043L21.9781 21L20.1491 19.2957C8.62118 31.6671 3.07813 49.9901 3.07813 73.8H5.57813ZM21.9781 21L23.8058 22.7058C34.4961 11.2519 48.2151 5.49998 65.1781 5.49998V2.99998V0.499985C46.9412 0.499985 31.8602 6.74807 20.1505 19.2942L21.9781 21ZM65.1781 2.99998V5.49998C82.141 5.49998 95.7134 11.2507 106.13 22.6837L107.978 21L109.826 19.3163C98.3762 6.74924 83.4152 0.499985 65.1781 0.499985V2.99998ZM107.978 21L106.17 22.7262C116.761 33.8222 122.278 50.6904 122.278 73.8H124.778H127.278C127.278 49.9763 121.595 31.6444 109.787 19.2738L107.978 21ZM124.778 73.8H122.278C122.278 96.9045 116.763 113.923 106.15 125.294L107.978 127L109.806 128.706C121.593 116.077 127.278 97.6288 127.278 73.8H124.778ZM107.978 127L106.149 125.296C95.7376 136.469 82.1596 142.1 65.1781 142.1V144.6V147.1C83.3967 147.1 98.352 140.998 109.807 128.704L107.978 127ZM65.1781 123V125.5C75.4309 125.5 83.8719 121.905 90.2549 114.652L88.3781 113L86.5013 111.348C81.151 117.428 74.1253 120.5 65.1781 120.5V123ZM88.3781 113L90.218 114.693C96.9234 107.404 100.078 96.9684 100.078 83.8H97.5781H95.0781C95.0781 96.2316 92.0995 105.263 86.5383 111.307L88.3781 113ZM97.5781 83.8H100.078V63.8H97.5781H95.0781V83.8H97.5781ZM97.5781 63.8H100.078C100.078 50.6316 96.9234 40.1959 90.218 32.9073L88.3781 34.6L86.5383 36.2926C92.0995 42.3375 95.0781 51.3684 95.0781 63.8H97.5781ZM88.3781 34.6L90.2549 32.9484C83.8719 25.695 75.4309 22.1 65.1781 22.1V24.6V27.1C74.1253 27.1 81.151 30.1716 86.5014 36.2516L88.3781 34.6ZM65.1781 24.6V22.1C54.9259 22.1 46.3759 25.6925 39.7383 32.9073L41.5781 34.6L43.418 36.2926C49.047 30.1741 56.2303 27.1 65.1781 27.1V24.6ZM41.5781 34.6L39.7013 32.9484C33.2873 40.2371 30.2781 50.6564 30.2781 63.8H32.7781H35.2781C35.2781 51.3436 38.1356 42.2962 43.4549 36.2516L41.5781 34.6ZM32.7781 63.8H30.2781V83.8H32.7781H35.2781V63.8H32.7781ZM32.7781 83.8H30.2781C30.2781 96.9436 33.2873 107.363 39.7013 114.652L41.5781 113L43.4549 111.348C38.1356 105.304 35.2781 96.2564 35.2781 83.8H32.7781ZM41.5781 113L39.7383 114.693C46.3759 121.907 54.9259 125.5 65.1781 125.5V123V120.5C56.2303 120.5 49.047 117.426 43.418 111.307L41.5781 113ZM201.578 7.8V10.3H230.378V7.8V5.3H201.578V7.8ZM230.378 7.8L228.172 6.62352L164.172 126.624L166.378 127.8L168.584 128.976L232.584 8.97646L230.378 7.8ZM166.378 127.8V125.3H137.578V127.8V130.3H166.378V127.8ZM137.578 127.8L139.784 128.976L203.784 8.97647L201.578 7.8L199.372 6.62352L135.372 126.624L137.578 127.8ZM68.7781 167V169.5H97.5781V167V164.5H68.7781V167ZM97.5781 167L95.3722 165.824L31.3722 285.824L33.5781 287L35.784 288.176L99.784 168.176L97.5781 167ZM33.5781 287V284.5H4.77813V287V289.5H33.5781V287ZM4.77813 287L6.98401 288.176L70.984 168.176L68.7781 167L66.5722 165.824L2.57224 285.824L4.77813 287ZM169.978 291.8V289.3C152.997 289.3 139.272 283.668 128.587 272.474L126.778 274.2L124.97 275.926C136.684 288.199 151.759 294.3 169.978 294.3V291.8ZM126.778 274.2L128.626 272.516C118.266 261.146 112.878 244.118 112.878 221H110.378H107.878C107.878 244.815 113.423 263.254 124.93 275.884L126.778 274.2ZM110.378 221H112.878C112.878 197.877 118.268 181 128.607 169.904L126.778 168.2L124.949 166.496C113.421 178.867 107.878 197.19 107.878 221H110.378ZM126.778 168.2L128.606 169.906C139.296 158.452 153.015 152.7 169.978 152.7V150.2V147.7C151.741 147.7 136.66 153.948 124.95 166.494L126.778 168.2ZM169.978 150.2V152.7C186.941 152.7 200.513 158.451 210.93 169.884L212.778 168.2L214.626 166.516C203.176 153.949 188.215 147.7 169.978 147.7V150.2ZM212.778 168.2L210.97 169.926C221.561 181.022 227.078 197.89 227.078 221H229.578H232.078C232.078 197.176 226.395 178.844 214.587 166.474L212.778 168.2ZM229.578 221H227.078C227.078 244.105 221.563 261.123 210.951 272.494L212.778 274.2L214.606 275.906C226.393 263.277 232.078 244.829 232.078 221H229.578ZM212.778 274.2L210.949 272.496C200.538 283.669 186.96 289.3 169.978 289.3V291.8V294.3C188.197 294.3 203.152 288.198 214.607 275.904L212.778 274.2ZM169.978 270.2V272.7C180.231 272.7 188.672 269.105 195.055 261.852L193.178 260.2L191.301 258.548C185.951 264.628 178.925 267.7 169.978 267.7V270.2ZM193.178 260.2L195.018 261.893C201.723 254.604 204.878 244.168 204.878 231H202.378H199.878C199.878 243.432 196.9 252.463 191.338 258.507L193.178 260.2ZM202.378 231H204.878V211H202.378H199.878V231H202.378ZM202.378 211H204.878C204.878 197.832 201.723 187.396 195.018 180.107L193.178 181.8L191.338 183.493C196.9 189.537 199.878 198.568 199.878 211H202.378ZM193.178 181.8L195.055 180.148C188.672 172.895 180.231 169.3 169.978 169.3V171.8V174.3C178.925 174.3 185.951 177.372 191.301 183.452L193.178 181.8ZM169.978 171.8V169.3C159.726 169.3 151.176 172.893 144.538 180.107L146.378 181.8L148.218 183.493C153.847 177.374 161.03 174.3 169.978 174.3V171.8ZM146.378 181.8L144.501 180.148C138.087 187.437 135.078 197.856 135.078 211H137.578H140.078C140.078 198.544 142.936 189.496 148.255 183.452L146.378 181.8ZM137.578 211H135.078V231H137.578H140.078V211H137.578ZM137.578 231H135.078C135.078 244.144 138.087 254.563 144.501 261.852L146.378 260.2L148.255 258.548C142.936 252.504 140.078 243.456 140.078 231H137.578ZM146.378 260.2L144.538 261.893C151.176 269.107 159.726 272.7 169.978 272.7V270.2V267.7C161.03 267.7 153.847 264.626 148.218 258.507L146.378 260.2Z" fill="#EF6300"/>
</svg>
