<svg width="700" height="213" viewBox="0 0 700 213" fill="none" xmlns="http://www.w3.org/2000/svg">
<rect x="608" width="92" height="176" fill="#EF6300"/>
<path d="M26.144 83.1598V121.688H31.82C35.26 128.74 40.42 136.136 54.352 136.136C67.424 136.136 79.98 125.816 79.98 102.252C79.98 79.0318 67.424 68.7118 54.352 68.7118C40.42 68.7118 35.26 76.1078 31.82 83.1598H26.144ZM11.696 57.8758H26.144V72.4958H31.82C34.572 64.5838 44.032 55.8118 56.416 55.8118C79.12 55.8118 95.46 71.9798 95.46 102.252C95.46 132.868 79.12 149.036 56.416 149.036C44.032 149.036 34.572 140.264 31.82 132.352H26.144V180.684H11.696V57.8758ZM122.949 93.8238H174.721C173.001 81.9558 165.777 68.7118 148.749 68.7118C133.957 68.7118 125.185 78.3438 122.949 93.8238ZM189.685 101.22V106.724H122.605C123.637 124.612 132.753 135.964 148.749 135.964C159.241 135.964 170.593 130.288 173.001 118.592H187.965C184.697 137.684 167.325 148.864 148.749 148.864C123.809 148.864 107.813 130.804 107.813 102.252C107.813 73.8718 123.809 55.8118 148.749 55.8118C172.829 55.8118 189.685 73.1838 189.685 101.22ZM255.9 57.8758V70.7758H221.156V146.8H206.536V57.8758H221.156V67.5078H226.66C231.992 58.5638 234.228 57.8758 255.9 57.8758ZM329.4 114.292H344.364C341.612 135.104 324.412 148.864 304.288 148.864C279.348 148.864 263.352 130.804 263.352 102.424C263.352 71.1198 282.1 55.8118 304.288 55.8118C323.896 55.8118 340.58 64.0678 343.504 86.5998H328.368C326.132 75.4198 318.048 68.7118 304.288 68.7118C288.292 68.7118 277.8 81.9558 277.8 102.424C277.8 122.72 287.088 135.964 304.288 135.964C319.768 135.964 328.024 125.128 329.4 114.292ZM371.039 93.8238H422.811C421.091 81.9558 413.867 68.7118 396.839 68.7118C382.047 68.7118 373.275 78.3438 371.039 93.8238ZM437.775 101.22V106.724H370.695C371.727 124.612 380.843 135.964 396.839 135.964C407.331 135.964 418.683 130.288 421.091 118.592H436.055C432.787 137.684 415.415 148.864 396.839 148.864C371.899 148.864 355.903 130.804 355.903 102.252C355.903 73.8718 371.899 55.8118 396.839 55.8118C420.919 55.8118 437.775 73.1838 437.775 101.22ZM528.07 89.0078V146.8H513.622V87.2878C513.622 79.5478 512.762 68.8838 496.594 68.8838C478.534 68.8838 476.298 79.7198 474.75 83.1598H469.074V146.8H454.626V58.0478H469.074V72.3238H474.75C479.394 60.4558 487.994 55.8118 499.346 55.8118C515.17 55.8118 528.07 63.7238 528.07 89.0078ZM589.92 70.7758H567.732V125.988C567.732 130.288 567.732 133.9 577.536 133.9H589.748V146.8H570.14C556.896 146.8 553.112 136.652 553.112 128.74V70.7758H540.728V57.8758H553.112V31.2158H567.732V67.5078H573.408C575.128 63.2078 577.192 57.8758 583.212 57.8758H589.92V70.7758Z" fill="white"/>
</svg>
